<svg xmlns="http://www.w3.org/2000/svg" viewBox="0 0 371.94 319.37"><g id="Layer_2" data-name="Layer 2"><g id="Layer_2-2" data-name="Layer 2"><path d="M125.27,226.07H126c2.22,0,4.44-.07,6.66-.12A13.3,13.3,0,0,1,141,228.5a10.17,10.17,0,0,1,3.89,6.32,15.4,15.4,0,0,1-.5,7.91c-.4,1.32-.93,2.61-1.4,3.91-.07.19-.17.38-.26.59.66.62,1.33,1.2,1.93,1.83a15.81,15.81,0,0,1,4,7.16,12.17,12.17,0,0,1,.24,3.56,18.09,18.09,0,0,1-.93,5.06,11.31,11.31,0,0,1-8.71,7.76,24.65,24.65,0,0,1-5.55.55l-7.66-.1h-.83Zm5.85,5.15c-.14.86-.1,21.7,0,22.22a3.13,3.13,0,0,0,.32-.3c1.12-1.26,2.3-2.49,3.35-3.81a22.91,22.91,0,0,0,4.27-8.11,10.46,10.46,0,0,0,.1-5.3C138.24,231.81,134.05,230.65,131.12,231.22Zm8.55,21.23c-.21.28-.38.5-.54.73a44,44,0,0,1-4.73,5.64c-1,1-2,2-3,3a1.06,1.06,0,0,0-.37.87c0,1.69,0,3.39,0,5.08a5,5,0,0,0,0,.51,4.24,4.24,0,0,0,.44.05h3.22a9.67,9.67,0,0,0,3.82-.85,7.34,7.34,0,0,0,4.26-4.65,11.9,11.9,0,0,0,.37-5.59A7.48,7.48,0,0,0,139.67,252.45Z"/><path d="M59.58,247.24c.66.63,1.3,1.17,1.87,1.78a15.59,15.59,0,0,1,4.14,7.56,13.66,13.66,0,0,1,.07,4.42,17.49,17.49,0,0,1-.88,4,11.32,11.32,0,0,1-8.6,7.61,24.62,24.62,0,0,1-5.61.56l-7.67-.1h-.82V226.11c.2,0,.41,0,.61,0l6.88-.12a13.38,13.38,0,0,1,8.27,2.54,10.09,10.09,0,0,1,3.8,6,14.92,14.92,0,0,1-.35,8.06c-.42,1.37-.95,2.7-1.44,4C59.77,246.79,59.67,247,59.58,247.24ZM47.9,253.51a5.24,5.24,0,0,0,.45-.42c.9-1,1.83-2,2.68-3a24.34,24.34,0,0,0,4.83-8.7,9.81,9.81,0,0,0,.2-5.29,6,6,0,0,0-2-3.42A7.77,7.77,0,0,0,48,231.17s-.07.05-.14.09Zm8.57-1.06-.52.71a44,44,0,0,1-4.68,5.6c-1,1-2,2-3.05,3a1,1,0,0,0-.35.81c0,1.74,0,3.48,0,5.23,0,.13,0,.27,0,.45l.38,0c1.12,0,2.24,0,3.37,0a9.28,9.28,0,0,0,3.81-.88,7.39,7.39,0,0,0,4.27-4.91,12.44,12.44,0,0,0,.32-5C59.74,255.27,58.34,253.74,56.47,252.45Z"/><path d="M184.75,273H179V226c.16,0,.27,0,.39,0,2.34,0,4.68,0,7,0a19.82,19.82,0,0,1,6.1,1.13,14.53,14.53,0,0,1,9.3,9.53,26.72,26.72,0,0,1,1.08,10.47,20.83,20.83,0,0,1-1.64,6.94,15.81,15.81,0,0,1-6,7.44,1.18,1.18,0,0,0-.18.13s0,.07-.11.15l8.1,11c-.29,0-.47.05-.64.05-1.79,0-3.59,0-5.38,0a1.07,1.07,0,0,1-1-.51c-2-2.66-4-5.31-6-8-.14-.19-.29-.37-.43-.55l-4.86.48Zm0-13.61,1-.09a12.26,12.26,0,0,0,9.34-5.9,15.66,15.66,0,0,0,2.22-8.55,27.54,27.54,0,0,0-.27-3.13,11.76,11.76,0,0,0-9.47-10.44,11.56,11.56,0,0,0-2.84-.33Z"/><path d="M103.11,264.38v8.49a35.66,35.66,0,0,1-5.71.06V226.08a1.43,1.43,0,0,1,.37-.08c2.39,0,4.78,0,7.17.05a19.14,19.14,0,0,1,6.15,1.2,14.44,14.44,0,0,1,9,9.24,22.75,22.75,0,0,1,1.17,5.95,29.2,29.2,0,0,1-.3,7,19.77,19.77,0,0,1-3.93,9,14,14,0,0,1-3.1,2.85l-.69.47,8.12,11.07a5.28,5.28,0,0,1-.55.06c-1.84,0-3.68,0-5.51,0a1,1,0,0,1-.94-.5c-2-2.68-4-5.35-6-8a1,1,0,0,0-1.13-.47C105.93,264.13,104.57,264.23,103.11,264.38Zm0-33.49v28.39a.53.53,0,0,0,.18.07A12.41,12.41,0,0,0,114,252.63a15.37,15.37,0,0,0,1.74-6.22,19.89,19.89,0,0,0-.3-5.34,11.59,11.59,0,0,0-7.38-9.23A14.15,14.15,0,0,0,103.15,230.89Z"/><path d="M303.69,249.56A35.61,35.61,0,0,1,300.85,264a20.2,20.2,0,0,1-4.94,7,11.18,11.18,0,0,1-5.37,2.85,9.63,9.63,0,0,1-7.27-1.4,16.58,16.58,0,0,1-4.77-4.78,26.49,26.49,0,0,1-3.79-8.84,37.27,37.27,0,0,1,1.2-22.11,20.9,20.9,0,0,1,5-8,15.55,15.55,0,0,1,2.53-2,9.54,9.54,0,0,1,10.2-.08,14.83,14.83,0,0,1,4.6,4.25,26.67,26.67,0,0,1,4.14,8.91A37.3,37.3,0,0,1,303.69,249.56Zm-5.65.56a35,35,0,0,0-.91-8.48,20.93,20.93,0,0,0-2.89-6.81,10.24,10.24,0,0,0-2.56-2.69,5.1,5.1,0,0,0-6.08,0,10.54,10.54,0,0,0-1.24,1.08,14.13,14.13,0,0,0-2.85,4.52,28.52,28.52,0,0,0-2.06,8.88,34.24,34.24,0,0,0,1.07,12.13,19.42,19.42,0,0,0,2.67,5.9,9.53,9.53,0,0,0,2.54,2.6,5,5,0,0,0,5.78,0,9.14,9.14,0,0,0,1.72-1.51,15.08,15.08,0,0,0,2.89-4.9A29.9,29.9,0,0,0,298,250.12Z"/><path d="M247.3,225.94H253c.05,1.77,0,3.53,0,5.28s0,3.49,0,5.23v21.2l.65-.31a13.29,13.29,0,0,1,5.73-1.67l4.43-.25a2.73,2.73,0,0,0,.42,0V226A36.08,36.08,0,0,1,270,226v46.81a36.21,36.21,0,0,1-5.69,0V261.35a1.88,1.88,0,0,0-.33-.09,22.51,22.51,0,0,0-7.93,1.33c-.87.33-1.67.81-2.51,1.21a.84.84,0,0,0-.51.91q0,3.65,0,7.31v.87c-1.92,0-3.79,0-5.71,0Z"/><path d="M74.39,272.88h-5.8c2.86-15.66,5.72-31.27,8.58-46.93H85.6q4.29,23.45,8.58,46.92H88.42c-.17-.91-.35-1.82-.52-2.73-.49-2.65-1-5.3-1.45-8a.73.73,0,0,0-.67-.69,5.81,5.81,0,0,0-2.42,0,8.81,8.81,0,0,0-5.13,3.05,18.55,18.55,0,0,0-3.67,7.68C74.51,272.4,74.46,272.61,74.39,272.88Zm10.84-17.31c-1.27-7-2.52-13.79-3.78-20.63h-.13c-1.34,7.33-2.67,14.66-4,22.12C79.78,255.66,82.26,254.71,85.23,255.57Z"/><path d="M312.22,264.33V273h-5.75V226.08a1.61,1.61,0,0,1,.38-.08c2.39,0,4.78,0,7.17.05a19.75,19.75,0,0,1,5.48.94,14.58,14.58,0,0,1,9.72,9.56,21,21,0,0,1,1.1,5.31,29.47,29.47,0,0,1-.38,8.28,19.4,19.4,0,0,1-2.89,7A15.72,15.72,0,0,1,315.83,264C314.68,264.16,313.51,264.22,312.22,264.33Zm.13-5s.09,0,.13,0A12.29,12.29,0,0,0,323,252.73a15.76,15.76,0,0,0,1.83-6.71,21.24,21.24,0,0,0-.3-4.78A11.85,11.85,0,0,0,313.92,231c-.53-.07-1.07-.11-1.6-.16C312.17,231.91,312.22,258.79,312.35,259.31Z"/><path d="M175.71,226v5.77H159.14v22.69a3.86,3.86,0,0,0,.53-.22,18.61,18.61,0,0,1,8-2.39c1.54-.11,3.09-.2,4.64-.3h.89v5.74c-.83.05-1.63.09-2.43.15a26.53,26.53,0,0,0-8,1.74c-1.09.46-2.14,1.06-3.2,1.59a.62.62,0,0,0-.42.6c0,1.84,0,3.68,0,5.52a1.71,1.71,0,0,0,.07.25h16.43a34.31,34.31,0,0,1,.1,5.68c-.49.16-21.34.21-22.33.05V226Z"/><path d="M244.4,240.16h-5.16c0-.2,0-.38.08-.55a7.45,7.45,0,0,0-.68-5.28,5.89,5.89,0,0,0-6.48-3.13,6.14,6.14,0,0,0-4.91,5.47,7.71,7.71,0,0,0,1.9,5.41,18.16,18.16,0,0,0,3.44,3.23q2,1.44,4.07,2.81a28.08,28.08,0,0,1,4,3.12,12.3,12.3,0,0,1,3.79,6.37,12.09,12.09,0,0,1-.2,5.67,15.67,15.67,0,0,1-3.71,7,9.38,9.38,0,0,1-5.49,3,10.13,10.13,0,0,1-9-2.91,12.82,12.82,0,0,1-3.8-11.3c0-.29.08-.57.13-.85a2.54,2.54,0,0,1,.11-.38h5.35c-.07.22-.12.41-.18.61a7.34,7.34,0,0,0,.27,5.45,6,6,0,0,0,4.74,3.72,5.44,5.44,0,0,0,4.91-1.77,7.67,7.67,0,0,0,.67-9.36,13.47,13.47,0,0,0-3.32-3.33c-1.33-.92-2.7-1.81-4.09-2.63a22.81,22.81,0,0,1-5.28-4,11.57,11.57,0,0,1-3.18-5.83c-.77-4.41.07-8.42,3.15-11.79a10.48,10.48,0,0,1,15.81.1,13,13,0,0,1,3.18,10.84,1.17,1.17,0,0,1-.05.2S244.45,240.07,244.4,240.16Z"/><path d="M144.72,302.8l.79.39a3.2,3.2,0,0,0,2.08.34,2.36,2.36,0,0,0,1.76-3.36,3.7,3.7,0,0,0-3.82-2.06,6,6,0,0,0-4.84,3.37,10.83,10.83,0,0,0-1.07,6.21A10.28,10.28,0,0,0,141,312a6.86,6.86,0,0,0,8,3.16c.21-.06.4-.14.68-.25,0-1.37,0-2.75,0-4.14a1.15,1.15,0,0,0-.5-1,1,1,0,0,0-1.13,0l-.67.49c-.47-.49-.32-1-.23-1.59a1.71,1.71,0,0,1-.65-1.32,13.56,13.56,0,0,1,3.31.1,2.37,2.37,0,0,1,1.91,1.84,14.39,14.39,0,0,1,.27,2.53c0,.83-.06,1.65-.05,2.48a5,5,0,0,0,.18,1.34c.2.72.56.93,1.31.85l.66-.09a1.47,1.47,0,0,1-.56,1.46,2.12,2.12,0,0,1,0,1.53c-1.25-.5-2.53-.88-3.29-2.12-.6.12-1.16.26-1.74.35a9,9,0,0,1-9.46-4.53,13.13,13.13,0,0,1-.3-12.65,7.71,7.71,0,0,1,6.7-4.52,5.83,5.83,0,0,1,5.71,2.65,4.76,4.76,0,0,1-3.07,7.29A2.69,2.69,0,0,1,144.72,302.8Z"/><path d="M204.39,313l-.12.1a4.37,4.37,0,0,0-1.31-.21,4.09,4.09,0,0,1-1.31.21c.46-2.67.13-5.35.23-8,0-.11,0-.21,0-.32a3.49,3.49,0,0,0-1.21,2.38,24.08,24.08,0,0,0-.14,2.75,7.67,7.67,0,0,0-2.73.06,5.85,5.85,0,0,0-1.16-5.15c0,.25,0,.5,0,.75,0,1.81,0,3.62,0,5.43,0,.68.11,1.36.18,2.09.05,0,0,0,0,0a4.69,4.69,0,0,0-1.31-.2c-.43.06-.84.32-1.37.14a6.58,6.58,0,0,0,.34-3q0-3.32,0-6.63a6.44,6.44,0,0,0-.38-3.07,3.73,3.73,0,0,1,3.33,1.14c.52.63.93,1.36,1.39,2l.49.8c.2-.33.34-.58.5-.82.34-.53.67-1.08,1-1.6a3.88,3.88,0,0,1,3.59-1.57c-.53,1.86-.22,3.72-.28,5.56,0,1.46,0,2.93,0,4.39A5.35,5.35,0,0,0,204.39,313Z"/><path d="M160.8,300.35a3.55,3.55,0,0,1,2.88,1,25.1,25.1,0,0,1,3.41,3.8c.13.2.29.38.43.57h.18c-.13-1.76.25-3.53-.31-5.31a.81.81,0,0,1,.81,0,1.57,1.57,0,0,0,1.29,0,4.4,4.4,0,0,1,.81-.12,6.63,6.63,0,0,0-.37,3.14c0,2.5,0,5,0,7.51,0,.68.12,1.36.19,2.11.06-.05,0,0,0,0a5.27,5.27,0,0,0-1.39-.21,2.86,2.86,0,0,1-1.4.16c.68-1,.17-2-.18-2.9a16.14,16.14,0,0,0-3.06-5.11c-.12-.14-.25-.27-.38-.4a.84.84,0,0,0-.22-.11c0,.22-.06.41-.06.6,0,2.1,0,4.21,0,6.31a11.93,11.93,0,0,0,.24,1.6s0,.06-.06.06a5.2,5.2,0,0,0-2.71.06,7,7,0,0,0,.28-2.77c0-2.58,0-5.17,0-7.75A4.5,4.5,0,0,0,160.8,300.35Z"/><path d="M223.14,313c-.5.21-.93-.2-1.38-.18s-.88.36-1.37.21c0-.06-.06-.12,0-.15a2.53,2.53,0,0,0,0-2.15A17.07,17.07,0,0,0,217,305a4.78,4.78,0,0,0-.45-.45s-.09,0-.24,0v.77c0,1.73,0,3.46,0,5.19,0,.84.11,1.68.18,2.57.07,0,.05,0,0,0a5.69,5.69,0,0,0-1.39-.2c-.43.06-.83.33-1.37.18a7.92,7.92,0,0,0,.3-3.28c0-2.15,0-4.31,0-6.47a6.43,6.43,0,0,0-.34-2.93,3.46,3.46,0,0,1,2.83,1,24.12,24.12,0,0,1,3.41,3.8,2,2,0,0,0,.62.6v-2.66a5.35,5.35,0,0,0-.4-2.73,2.21,2.21,0,0,1,.65,0,2.4,2.4,0,0,0,1.84,0,1.23,1.23,0,0,1,.44,0c-.54,1.8-.23,3.6-.28,5.39,0,1.54,0,3.09,0,4.63a12.34,12.34,0,0,0,0,1.36A11.5,11.5,0,0,0,223.14,313Z"/><path d="M205.29,313.12a6.67,6.67,0,0,0,.34-3c0-2.45,0-4.9,0-7.35,0-.76-.11-1.52-.17-2.36a4.14,4.14,0,0,1,.48,0c1.28,0,2.56,0,3.84,0,.78,0,1.56-.11,2.41-.17-.05-.07,0,0,0,0a4.9,4.9,0,0,0,.22,2.85,12.22,12.22,0,0,0-4.48-.35v2.61a5.29,5.29,0,0,0,2.87-.26c0,.06.09.11.09.15A3.56,3.56,0,0,0,211,308a5.68,5.68,0,0,0-3.08-.37v3.28c1.63-.11,3.24.25,5-.36a5.16,5.16,0,0,0,0,3,6.68,6.68,0,0,0-3.21-.44Z"/><path d="M155.08,307.6v3.24c1.59,0,3.19.26,4.82-.27.2.52-.21,1-.19,1.43a7.85,7.85,0,0,0,.34,1.45c-2.25-.6-4.41-.21-6.54-.33h-1c.49-2.45.17-4.86.25-7.27,0-.9,0-1.81,0-2.71a5.45,5.45,0,0,0-.39-2.73,5.63,5.63,0,0,1,.69-.08c1.27,0,2.55,0,3.83,0,.79,0,1.57-.12,2.41-.18.14.42-.29.88-.24,1.35s.35.88.21,1.43c-1.37-.54-2.78-.28-4.22-.32v2.66A6.1,6.1,0,0,0,158,305a5.56,5.56,0,0,0,.1,3A5.46,5.46,0,0,0,155.08,307.6Z"/><path d="M181.72,309.46l2.8,1.8a5.48,5.48,0,0,0,6.64-.71c.3-.32.55-.7.89-1.14a4.78,4.78,0,0,0,1.82,2.16c-1.23.71-2.33,1.46-3.52,2a6.88,6.88,0,0,1-7.34-.54c-.37-.27-.75-.51-1.1-.8a2.81,2.81,0,0,0-2.07-.68,5.23,5.23,0,0,1-.56,0c.45-2.78.14-5.54.22-8.3a5.72,5.72,0,0,0-.36-2.89c.26,0,.46-.08.6,0a2.65,2.65,0,0,0,1.92,0,1.07,1.07,0,0,1,.31,0C181.49,303.41,181.89,306.46,181.72,309.46Z"/><path d="M232.16,303.41a4.31,4.31,0,0,0-2.62,1c0-.45,0-.75-.09-1.05a1.33,1.33,0,0,0-.92-1.2,1,1,0,0,0-1.11.22.89.89,0,0,0-.19,1,2.92,2.92,0,0,0,.49.81c.5.59,1.05,1.14,1.56,1.71a24.89,24.89,0,0,1,1.72,2,3.26,3.26,0,0,1-.88,4.91,3.66,3.66,0,0,1-5.08-1.45c-.25-.49-.54-1-.82-1.46,0,0,0-.08.07-.08a5.36,5.36,0,0,0,2.5-1c0,.44,0,.75.07,1.06a1.41,1.41,0,0,0,1.44,1.24,1.08,1.08,0,0,0,1-1.7,16.63,16.63,0,0,0-1.48-1.78c-.68-.78-1.41-1.52-2.06-2.33a3.63,3.63,0,0,1-.84-2.44,3,3,0,0,1,3-3,3.61,3.61,0,0,1,3.39,2C231.53,302.35,231.81,302.8,232.16,303.41Z"/><path d="M183.53,300.38c2.24-.23,4.52.24,6.85-.33a4.84,4.84,0,0,0,.07,2.91c-1.52-.56-2.92-.32-4.37-.37v1.31a5.33,5.33,0,0,0,2.76-.26c.06.05.13.09.13.12a4.82,4.82,0,0,0-.2,1.39,3.22,3.22,0,0,1,.17,1.38,5.85,5.85,0,0,0-2.86-.29v1.42c1.6-.09,3.19.24,4.87-.33a6.1,6.1,0,0,0,0,2.88,7.59,7.59,0,0,0-3-.3c-1.46,0-2.92,0-4.39,0,.44-2.66.14-5.28.21-7.89A10.4,10.4,0,0,0,183.53,300.38Z"/><path d="M188.66,282.05c-.09.84-.35,1.22-1,1.29a6.94,6.94,0,0,1-2-.1c-.91-.18-1.79-.5-2.69-.74-.45-.13-.92-.2-1.45-.31v3.34l2.81.69-.87,1.72a2.23,2.23,0,0,0-2-.7c0,2.53-.1,5,.09,7.59h-1.72c0-.74.07-1.5.07-2.26,0-3.07,0-6.13,0-9.2v-.91a3.36,3.36,0,0,0-1.81.85,1.45,1.45,0,0,1,.46-2,4,4,0,0,1,2.18-.67,9,9,0,0,1,3.53.57A9.78,9.78,0,0,0,188.66,282.05Z"/><path d="M171.19,300a19.89,19.89,0,0,0,7,0c.21.5-.19.94-.16,1.39s.33.88.18,1.41a10.27,10.27,0,0,0-1.16-.28,8.86,8.86,0,0,0-1.16,0c0,.28-.05.51-.05.74,0,2.72,0,5.44,0,8.16a13.25,13.25,0,0,0,.23,1.59s0,.05-.07,0a5.51,5.51,0,0,0-2.75.1,6.74,6.74,0,0,0,.38-3.11c0-2.19,0-4.38,0-6.56v-.89a3.75,3.75,0,0,0-2.44.31,4.94,4.94,0,0,1,.13-1.06,1.25,1.25,0,0,0,0-.91A5.34,5.34,0,0,1,171.19,300Z"/><path d="M190.57,288.5a6.16,6.16,0,0,1-.66,2.76,2.56,2.56,0,0,1-2.29,1.61,2.49,2.49,0,0,1-2.22-1.59,6.43,6.43,0,0,1-.09-5.63,2.48,2.48,0,0,1,1.73-1.52,2.42,2.42,0,0,1,2.7,1.09A5.62,5.62,0,0,1,190.57,288.5Zm-1.41-.74c-.19-.56-.31-1-.5-1.45a1.12,1.12,0,0,0-1-.78,1.17,1.17,0,0,0-1.07.83,1.78,1.78,0,0,0-.12.29,5.33,5.33,0,0,0,.09,3.61,3.48,3.48,0,0,0,.66,1,.57.57,0,0,0,.73.12,1.46,1.46,0,0,0,.75-1.68.87.87,0,0,0-1.16-.67l-.49.11v-1.86Z"/><path d="M195.14,288.67c1.11,1.17,1,2.63,1.26,4h-1.79a3.43,3.43,0,0,0-.05-2.17,4,4,0,0,0-.47-.92c-.35-.5-.44-.51-1.14-.41v3.5h-1.68a27,27,0,0,0,.1-4.32,22.54,22.54,0,0,0-.12-4.27l.07-.07a8.92,8.92,0,0,0,2.19,0,2.44,2.44,0,0,1,2.45,1.45,2.51,2.51,0,0,1-.49,2.89A4.42,4.42,0,0,1,195.14,288.67Zm-2.25-1.15c.69.1,1.26.13,1.65-.45a1,1,0,0,0,0-1.19,1.46,1.46,0,0,0-1.6-.37Z"/><rect y="288" width="19.55" height="4.29" rx="1.96"/><polygon points="18.17 236.15 1.38 224.27 1.38 231.32 18.17 243.19 18.17 236.15"/><polygon points="18.17 222.51 18 222.39 8.04 222.39 18.17 229.55 18.17 222.51"/><polygon points="18.17 250.24 1.38 238.37 1.38 245.41 18.17 257.29 18.17 250.24"/><polygon points="18.17 264.1 1.38 252.23 1.38 259.27 18.17 271.15 18.17 264.1"/><polygon points="18.17 277.79 1.38 265.91 1.38 272.96 18.17 284.83 18.17 277.79"/><polygon points="1.38 280.04 1.38 287.03 11.26 287.03 1.38 280.04"/><path d="M18,218a1.61,1.61,0,0,0-.44-.06H2a1.61,1.61,0,0,0-.44.06A1.55,1.55,0,0,0,.4,219.48v.38A1.56,1.56,0,0,0,2,221.42H17.59a1.56,1.56,0,0,0,1.56-1.56v-.38A1.55,1.55,0,0,0,18,218Z"/><path d="M17.59,217.13h.2a8.33,8.33,0,0,0-8-8,8.33,8.33,0,0,0-8,8H17.59Z"/><path d="M1.1,293.26c.67,3.5,4.29,6.18,8.67,6.18s8-2.68,8.68-6.18Z"/><rect x="352.39" y="288" width="19.55" height="4.29" rx="1.96"/><polygon points="370.56 236.15 353.76 224.27 353.76 231.32 370.56 243.19 370.56 236.15"/><polygon points="370.56 222.51 370.38 222.39 360.42 222.39 370.56 229.55 370.56 222.51"/><polygon points="370.56 250.24 353.76 238.37 353.76 245.41 370.56 257.29 370.56 250.24"/><polygon points="370.56 264.1 353.76 252.23 353.76 259.27 370.56 271.15 370.56 264.1"/><polygon points="370.56 277.79 353.76 265.91 353.76 272.96 370.56 284.83 370.56 277.79"/><polygon points="353.76 280.04 353.76 287.03 363.65 287.03 353.76 280.04"/><path d="M370.42,218a1.67,1.67,0,0,0-.44-.06H354.34a1.67,1.67,0,0,0-.44.06,1.56,1.56,0,0,0-1.12,1.49v.38a1.56,1.56,0,0,0,1.56,1.56H370a1.56,1.56,0,0,0,1.56-1.56v-.38A1.56,1.56,0,0,0,370.42,218Z"/><path d="M370,217.13h.19a8,8,0,1,0-16,0H370Z"/><path d="M353.49,293.26c.67,3.5,4.29,6.18,8.67,6.18s8-2.68,8.67-6.18Z"/><path d="M166.8,188.19c-1.86-1-3.49-1.76-5.07-2.64-9.91-5.51-15.89-13.93-18.43-24.92a60.73,60.73,0,0,1-1.49-17.57c0-.37.14-.8-.27-1s-.75.21-1,.53c-.45.6-.85,1.24-1.28,1.86-.15.2-.34.44-.6.39s-.28-.37-.27-.62c.25-3.71.41-7.43.9-11.13.47-3.52.92-7.05,1.36-10.57a3.19,3.19,0,0,0-.68-1.86c-1.82-3.48-3.26-7.06-3.08-11.09a4.79,4.79,0,0,1,.22-.89,3,3,0,0,1,.74.56,38.7,38.7,0,0,1,2.79,4.16,2,2,0,0,0,.74.54,1.73,1.73,0,0,0,.28-.87,21.86,21.86,0,0,1-.25-4.5,2.07,2.07,0,0,0-.66-1.45,9.49,9.49,0,0,1-2.48-7.51,10,10,0,0,0-.91-4.59,54.73,54.73,0,0,1-3.7-13.89,11.65,11.65,0,0,1,.24-3.86c.61-2.64,2.55-3.66,5-4.13,1.72-.34,1.65-.34,1.59-2.13-.16-4.93-.27-9.87-.37-14.81-.08-4.69-.48-9.37-.16-14.06S141.17,33,143.77,29c.2-.32.42-.67.16-1s-.59-.25-.92-.21a68.88,68.88,0,0,1-9.53.08c-.35,0-.84.06-1-.37s.3-.43.56-.52c4.61-1.53,8.41-4.41,12.16-7.36.85-.67,1.72-1.33,2.58-2,.23-.18.55-.32.4-.68s-.47-.31-.76-.3a25.08,25.08,0,0,1-3.4.48,3.83,3.83,0,0,1,1.39-1.68,64.3,64.3,0,0,1,14.22-10c6.2-3,12.83-3.86,19.65-3.47a40.32,40.32,0,0,1,6.48.74,7.45,7.45,0,0,0,1.25.11c.2,0,.44,0,.53-.24s-.09-.47-.3-.6c-.9-.58-1.8-1.14-2.72-1.72.31-.41.63-.25.87-.17,6.9,2.14,14,3.78,20.6,6.69,5,2.2,10,4.58,14,8.41a25.15,25.15,0,0,1,8,14.43,1.78,1.78,0,0,0,1.18,1.47c4.54,2,6.57,5.74,7.09,10.44.45,4-.33,8-.62,12-.44,6.09-1,12.17-1.62,18.25-.07.77.17,1.09.9,1.17a8.38,8.38,0,0,1,3.1.93c2.22,1.21,3.25,3.88,2.87,7.1a63.06,63.06,0,0,1-4.2,15.32,5.66,5.66,0,0,0-.42,2.57,12.3,12.3,0,0,1-1.68,7.44c-1,1.7-.76,3.74-.8,5.66,0,.67.49.57.84.18.59-.66,1.13-1.34,1.7-2a2.86,2.86,0,0,1,1.24-1,20.5,20.5,0,0,1-.82,5.4,16.38,16.38,0,0,1-1.84,4.91,2.87,2.87,0,0,0-.39,1.67c.55,10.62.71,21.25,1,31.88,0,.78.07,1.56.11,2.49-.84-.27-1-.9-1.16-1.45-.14-.36-.29-.77-.76-.68s-.4.55-.39.92c.27,8.29-2.63,15.47-7.76,21.84-.23.28-.5.74-.87.59s-.15-.65-.13-1a41.77,41.77,0,0,0-.4-7.74c-.05-.4-.21-.79-.64-.83s-.51.35-.58.69a42.91,42.91,0,0,1-3.26,9.05c-3.86,8.46-10.2,14.7-17.82,19.78-.94.63-1.9,1.23-2.81,1.9-.68.51-1.12.34-1.51-.35s-.89-1.5-1.35-2.25c-.14-.24-.26-.59-.63-.46s-.32.48-.28.76a46.64,46.64,0,0,0,.46,4.87c.08.31.25.76-.06.94s-.66-.25-.88-.51a45.24,45.24,0,0,0-6-6.25c-3.48-2.8-7.61-4.35-11.66-6-4.9-2-9.79-4.12-14.16-7.21-.34-.24-.8-.74-1.19-.28s.2.74.47,1c1.23,1.36,2.48,2.71,3.72,4.07A2.21,2.21,0,0,1,166.8,188.19Zm-7.88-63.47c2.47-.58,10.71-2.15,13-3.16,4-1.75,8-3.67,12-5.25.44-.17.92-.53,1.57,0a3.78,3.78,0,0,0-2.24,1.31c.32.25.55.11.79.05a14.47,14.47,0,0,1,8.64.1c3.81,1.35,7.55,2.87,11.31,4.35a34.13,34.13,0,0,0,10.32,2.7c.4,0,1,.26,1-.3s-.55-.41-.87-.53a22.2,22.2,0,0,1-5.36-2.45.78.78,0,0,1,.48,0A29.94,29.94,0,0,0,221.13,124a12.8,12.8,0,0,0,3.49-.38c.3-.08.74-.19.69-.6s-.45-.32-.74-.32a32.64,32.64,0,0,1-11.89-2.73,150.52,150.52,0,0,1-16.33-7.63,1.57,1.57,0,0,0-1.3-.19,34.25,34.25,0,0,1-4.47,1.2,2.07,2.07,0,0,0-1.66,1,14.41,14.41,0,0,1,5.81,1.46,31.34,31.34,0,0,0-7.74-.11c-.2,0-.43-.06-.39-.35.1-.91-.6-.66-1-.64a20.22,20.22,0,0,0-5.16,1c-.45.13-.88.38-1.36.09.14-.43.45-.48.72-.57l3.42-1.18c.22-.09.52-.19.5-.49s-.31-.37-.55-.43c-1-.27-2-.45-3-.81a2.57,2.57,0,0,0-2.28.23c-4.33,2.45-8.32,5-12.91,6.95-4.19,1.75-8.72,3.42-13.38,3.58-.64,0-2.06,0-2.06,0a10.33,10.33,0,0,0,2.06.61,26,26,0,0,0,11.72-1.51c.72-.26,1.47-.45,2.21-.68-.7.43-1.35.89-2,1.26a27.94,27.94,0,0,1-4.95,2.61,3.42,3.42,0,0,1-1,.21c-.71,0-1.45.13-2.16.1-4-.15-7.74-.37-10.9-3.11-.29-.26-1.17-.91-1.17-.91l1,1.24c3.5,4,7.63,5.35,12.73,5A39.85,39.85,0,0,0,173,123c.78-.41,1.69-.59,2.11-1.56-3.62,1.2-13.39,3.38-17.16,4C157.76,125.46,158.45,124.82,158.92,124.72Zm12-82.09a23.37,23.37,0,0,0-13.57,3.69c-5.21,3.33-7.75,9.22-6,15.17.54,1.79.71,3.15-1,4.28a2.89,2.89,0,0,0-.6.8c-4,5.57-4.77,12-4.54,18.53a49.47,49.47,0,0,0,4.35,19,29.82,29.82,0,0,0,11.67,13.59,1.79,1.79,0,0,0,1.89.11,17.32,17.32,0,0,1,2.84-1.31c3.72-1.08,7.08-3,10.6-4.49,1-.42.6-.78,0-1.2a7.73,7.73,0,0,1-1.34-.91c-.76-.89-.7-1.27.37-1.78a4.72,4.72,0,0,1,5.87,1.35,18.63,18.63,0,0,0,1.64,1.9c2.31,2.16,4.36,2.34,6.77.71a10.88,10.88,0,0,0,2.47-2.46,4.44,4.44,0,0,1,5.43-1.69c.53.18,1.23.29,1.29,1s-.5,1.09-1,1.46c-.13.1-.3.16-.43.25-.93.64-.91,1,.07,1.42,4.41,2.12,9,3.87,13.41,5.93a3.45,3.45,0,0,0,4.32-.59A36.08,36.08,0,0,0,225.72,103a51.37,51.37,0,0,0,3.67-18.62c.2-7.35-.34-14.53-5.83-20.27a1.31,1.31,0,0,1-.27-1.28c1.08-5.52-.13-10.36-4.32-14.28-.53-.5-.62-1-.17-1.51a10.9,10.9,0,0,0,1.63-2.82A16.94,16.94,0,0,0,222,35.77c0-.36,0-.88-.47-.89s-.35.5-.42.8-.06.5-.11.75a11.27,11.27,0,0,1-4.56,7.51c-3.27,2.33-7.07,3-10.91,3.25A69.25,69.25,0,0,1,184,44.6,53.7,53.7,0,0,0,170.94,42.63Zm4.11,121.1a67.91,67.91,0,0,1,15.06,8.73,49.15,49.15,0,0,1,11.83,12.82,24.18,24.18,0,0,0-3-7.15,47.47,47.47,0,0,0-4.28-6.63c-1.54-2-3.19-3.94-4.79-5.9,4.78,3.68,9.26,7.61,12.18,13,.19.34.24,1,.77.83s.36-.75.35-1.18a11,11,0,0,1,.19-2.74,20.4,20.4,0,0,1,5.18-9.33,46,46,0,0,0,6.77-9.15c.81-1.48,1.35-3.07,2.2-4.55a75.62,75.62,0,0,1-9.83,29.71,1,1,0,0,0,1.18-.44,56.74,56.74,0,0,0,8.9-15.19,56.72,56.72,0,0,0,3.15-14.29,63.22,63.22,0,0,0-1-17.48c-.06-.37-.12-.82-.55-.91s-.64.33-.8.66a17.19,17.19,0,0,1-2.63,3.65,3,3,0,0,0-1,1.82,56.35,56.35,0,0,1-3.22,15.29c-.11.33-.09.78-.64.81-.05-.11-.14-.22-.13-.33a8.45,8.45,0,0,1,.09-1.12c.48-2.86-.05-5.67-.52-8.47-.05-.34-.14-.69-.55-.75s-.57.29-.74.57a7.22,7.22,0,0,0-.41.78,26.1,26.1,0,0,0-2.36,9.31c0,.37.12.85-.43,1.1a2.11,2.11,0,0,1-.25-.42,28.35,28.35,0,0,0-5.35-10.41,51.81,51.81,0,0,0-3.58-3.85c-.24-.25-.62-.64-1-.36s.12.63.28.92c.36.62.8,1.18,1.12,1.81,2.24,4.34,2.93,9,3.1,13.84a7.61,7.61,0,0,1-.25,3.39c-.19-.08-.24-.24-.31-.39a6.07,6.07,0,0,1-.31-.69,19.78,19.78,0,0,0-5.62-8.76,64.2,64.2,0,0,0-9.76-7c-3-2-6.1-3.94-6.83-7.91,0-.2-.12-.46-.37-.43s-.37.39-.4.67a13.11,13.11,0,0,0,1,6.61,28.81,28.81,0,0,0,6.64,9.19c3.66,3.62,7.41,7.14,10.73,11.08.16.2.48.35.21.71a44.56,44.56,0,0,0-4.82-3.18A68.36,68.36,0,0,0,177,157a37.39,37.39,0,0,1-11-4.72,15.72,15.72,0,0,1-5.93-7c-.11-.28-.21-.76-.61-.69s-.42.59-.38.93c.1.87.36,1.72.4,2.59a30.82,30.82,0,0,0,2.23,9.75,34,34,0,0,0,10.22,13.6c.3.25.75.44.92,1a18.29,18.29,0,0,1-5-3.22c-6.87-6.08-9.81-14.15-11.34-22.88a44.2,44.2,0,0,1-.66-7.88c0-.3,0-.78-.36-.84s-.43.43-.48.72a50,50,0,0,0-.7,11.13,3.45,3.45,0,0,1-.29,2.13c-1.57-7-6-12.8-7.16-20.06a1.83,1.83,0,0,0-.63,1.23c-.42,3.66-1.07,7.28-1.14,11a60.81,60.81,0,0,0,2.41,19.44c.11.35,0,1,.59.92s.26-.71.27-1.11a4.74,4.74,0,0,0-.06-.75,52.2,52.2,0,0,1,.11-11.52c0-.3-.09-.7.44-.84a15,15,0,0,1,.55,3.05,41.62,41.62,0,0,0,7,18.33,29.2,29.2,0,0,0,14.5,10.91c.46.16,1,.48,1.52,0a3.69,3.69,0,0,0-1.4-1.11,31.36,31.36,0,0,1-4.5-3.16,26.55,26.55,0,0,1-8.61-14.52c-.1-.49-.34-1,.18-1.6a29.75,29.75,0,0,0,3.51,7.74,22.45,22.45,0,0,0,12.5,9.11c3.72,1.11,7.56,1.81,11.16,3.33.28.11.57.23.81,0s.11-.64-.08-.92a36.81,36.81,0,0,0-6.8-8.32c-1.4-1.19-2.86-2.32-4.42-3.57.31,0,.45-.06.54,0,.61.28,1.23.54,1.81.88a37.38,37.38,0,0,1,12.26,11.64,1.33,1.33,0,0,0,1.16.78C186.67,175.21,181.77,168.75,175.05,163.73ZM155.29,16.57a45.77,45.77,0,0,1,10.91,0,27.65,27.65,0,0,1,10.45,3.69,21.18,21.18,0,0,1,7.4,8,.68.68,0,0,1-.71-.31,20.48,20.48,0,0,0-8.81-6,1.48,1.48,0,0,0-1.65,0,5.82,5.82,0,0,0,.83.7c3.6,1.95,5.52,5.25,7.09,8.82.67,1.53,1.15,3.15,2,4.61,2.88,5.18,7.4,8,13.1,9.19.33.07.71.14.91-.22s-.2-.58-.44-.77a26.39,26.39,0,0,1-5.92-7.57c-1.46-2.54-1.95-3.79-1.94-5,.26.35.49.64.7,1A21,21,0,0,0,198,40.16c2.59,1.22,5.25,2.42,7.07,4.82a.52.52,0,0,0,.68.13.59.59,0,0,0,.25-.66c-.1-.87-.23-1.74-.32-2.61-.3-2.74-.71-5.46-1.25-8.17a12.29,12.29,0,0,1-.72-3.8,18.74,18.74,0,0,1,1.82,3.89,48.85,48.85,0,0,1,2.3,7.8c.08.38.1,1,.59,1s.5-.66.59-1.08c.61-2.72.81-5.5,1.25-8.3a1.36,1.36,0,0,1,.47,1.07,54.75,54.75,0,0,1,.31,7.89c0,.44-.33,1,.26,1.2s.77-.42,1-.79a29.49,29.49,0,0,0,3.44-8.83,25.11,25.11,0,0,0-2.1-16c-.26-.58-.46-1.33-1.43-1.63.47,2.47,1.32,4.73,1.09,7.14a13.69,13.69,0,0,1-2,6.71,45.94,45.94,0,0,0-.51-4.57,24.51,24.51,0,0,0-8.72-15.23A30.29,30.29,0,0,0,199,8.05c-.21-.13-.49-.21-.66.07s.06.39.2.55a4.57,4.57,0,0,0,.44.44c5.5,5.05,7.43,11.72,8.51,18.78a1.14,1.14,0,0,1-.2,1.08c-.36-.93-.67-1.73-1-2.54A30.88,30.88,0,0,0,196.08,12.3a30.31,30.31,0,0,0-10.86-5,55,55,0,0,0-7.56-1.16c-.39,0-1-.14-1.08.35s.53.57.91.72a3,3,0,0,0,.73.16,15.12,15.12,0,0,1,3.84,1.12c6.28,2.46,10.68,7,14.13,12.65a6.21,6.21,0,0,1,1,2.37,10.64,10.64,0,0,1-1.1-1.33,30.9,30.9,0,0,0-13.81-10.85C176,8.84,169.53,8.55,162.92,9.11a3.18,3.18,0,0,0-.84.23c-.19.07-.41.2-.34.44a.59.59,0,0,0,.36.31,3.51,3.51,0,0,0,.86.14,44.1,44.1,0,0,1,15,3.27,33,33,0,0,1,18.65,18.12c.15.35.42.73.11,1.22-.51-.23-.72-.72-1-1.11a45.8,45.8,0,0,0-5.14-6c-8-7.87-17.45-12.11-28.87-11C159.49,15,157.23,15.19,155.29,16.57ZM176,32.41c.46-.16.56.13.73.29a24.76,24.76,0,0,1,3.48,4.41c.21.31.47.91.92.67s.14-.77,0-1.13c-1.88-4.68-4.35-9-8.4-12.13-5.46-4.26-11.67-4.8-18.22-3.53-.17,0-.3.12-.27.44a36.47,36.47,0,0,0,4.69.23c4.94.44,8.36,2.86,10.23,7.45.14.33.56.69.16,1s-.7-.1-1-.29c-4.22-2.57-8.88-2.66-13.61-2.36a3.8,3.8,0,0,0-.85.22c-.2.06-.42.16-.41.4s.26.31.47.34a6.34,6.34,0,0,0,.75.07c5.29,0,9.59,2.26,13.34,5.81,1.48,1.41,3,2.82,4.54,4.15A12.81,12.81,0,0,0,178,41.14c1.42.33,1.88-.17,1.39-1.43s-1.15-2.79-1.78-4.15C177.16,34.49,176.58,33.47,176,32.41Zm53.56,129.41c.54-.36.51-.89.59-1.38a37.22,37.22,0,0,0-.08-11.73,24.7,24.7,0,0,0-6.36-13.77c-.34-.37-.62-1.05-1.28-.76s-.45.92-.46,1.45a16.27,16.27,0,0,0,2.74,8.85,30.47,30.47,0,0,1,4.53,16.06A1.71,1.71,0,0,0,229.59,161.82Zm-50-6.24c-.87-1.07-1.88-1.18-2.72-1.6-6.86-3.45-11.47-9-14.82-15.77-.19-.37-.24-.93-.74-.88s-.59.63-.59,1.09a13.08,13.08,0,0,0,3.11,9c3,3.56,7,5.65,11.28,7.14A14,14,0,0,0,179.62,155.58Zm-43-72.22c-.44.54-.18.91-.1,1.31a41.31,41.31,0,0,0,2.38,7.09,46.3,46.3,0,0,0,3.28,6.76c.2.33.42.69.86.59s.4-.48.38-.82c-.17-5-.09-10-.47-15.05a4.15,4.15,0,0,0-4.31-4c-.53,0-1.34-.13-1.39.5,0,.81.8.47,1.27.52a3.56,3.56,0,0,1,2.82,4.6,10.65,10.65,0,0,0-.88,3.89c0,.68.35,1.36,0,2.24C138.73,88.62,138.2,85.78,136.6,83.36Zm97.51,8.32a3.59,3.59,0,0,1-.14-.81,9.22,9.22,0,0,0-1-6.66.9.9,0,0,1,0-.95c.82-1.61,1.68-3.14,3.84-3.05.28,0,.62,0,.65-.44,0-.24-.22-.33-.41-.42-1.64-.79-5.13,1.13-5.34,2.93a80.24,80.24,0,0,0-.5,8.76c0,2.25.27,4.5.42,6.75,0,.3.07.62.42.7s.49-.25.66-.48a4.59,4.59,0,0,0,.35-.51,58.64,58.64,0,0,0,4.2-9.62,6.53,6.53,0,0,0,.57-4C236.18,86.41,235.59,89.09,234.11,91.68Zm-34.48,29.7-.11.28c.31.25.63.51.95.75a2.14,2.14,0,0,0,.32.2c5.18,2.61,10.53,4.69,16.37,5.18,5.31.46,10-.82,13.66-5,.26-.3.76-.61.31-1s-.66.14-.94.37a16,16,0,0,1-6.16,2.94c-3.43,1-6.87.51-10.29.2a37.44,37.44,0,0,1-9.68-2.36C202.59,122.36,201.1,121.88,199.63,121.38Zm-1.75,32c.27-1.38-.47-2.41-1-3.49a25.08,25.08,0,0,0-11.31-12c-.36-.19-.72-.58-1.13-.23s-.1.79,0,1.17a11,11,0,0,0,4.47,5.87C192.31,147.18,195.87,149.42,197.88,153.36ZM221.27,28.91a9.11,9.11,0,0,0-.18-2.5c-.08-.28-.11-.67-.45-.68s-.38.39-.43.67a12.39,12.39,0,0,1-1.49,4.5,36.65,36.65,0,0,0-4.38,11c-.12.46-.41,1,.15,1.35s.79-.3,1.1-.59C219.58,38.93,221,34.17,221.27,28.91Zm-19.35,98.81a1,1,0,0,1-1,.16,32.2,32.2,0,0,1-5.37-2.39,12.27,12.27,0,0,1-3.71-3.5c-.18-.25-.41-.65-.79-.38s-.07.54.07.8a7.25,7.25,0,0,0,2,2.66,26.25,26.25,0,0,0,9.8,4.25,41.1,41.1,0,0,0,12.46.86c.67-.05,1.91.24,1.86-.39-.07-.91-1.22-.42-1.9-.41-4.19,0-8.4.22-12.22-2l-3.4-1.94C200.14,126.55,201.15,126.94,201.92,127.72Zm-38.22,2.13.11.32c.1.05.21.15.31.15a40.85,40.85,0,0,0,10.47-1.83,18.57,18.57,0,0,0,6-2.85,7.69,7.69,0,0,0,2.74-4.53c-.39-.1-.46.08-.55.21-2.16,3.49-5.51,5.23-9.31,6.32-.23.07-.52.26-.69,0s.11-.54.31-.71c.51-.43,1.23-.64,1.55-1.76A27.4,27.4,0,0,1,163.7,129.85Z"/><path d="M214.6,87.19a10.46,10.46,0,0,1-3.32,1c-5.15.81-9.92-.11-14-3.47a1.39,1.39,0,0,0-2.15.05,9.76,9.76,0,0,0-3,4.24,2,2,0,0,1-.73,1.25c-.33-.19-.29-.51-.32-.78a40,40,0,0,1,1.27-15.91c0-.08,0-.16.07-.24.54-1.65.55-1.67,2.09-.94a4.16,4.16,0,0,0,3,.3,85.28,85.28,0,0,1,13.54-2.37c1.38-.15,2.76-.24,4.13-.39a2.69,2.69,0,0,1,2.56,1A26.75,26.75,0,0,0,219.87,73c.28.26.59.79,1,.52s0-.75-.13-1.1-.41-.82-.6-1.23c-.1-.22-.26-.48,0-.7s.47-.1.69,0a8.16,8.16,0,0,1,4.93,5.73c.19.78-.08,1.16-.94.79A31.44,31.44,0,0,0,214,74.88c-.43,0-1.07-.22-1.17.37s.54.63,1,.78a14.09,14.09,0,0,1,7.27,6.07c.16.24.37.51.21.81a.49.49,0,0,1-.43.12c-2.41-.83-4.62.25-6.87.75a27,27,0,0,1-7.68,1,3.76,3.76,0,0,0-.75,0c-.25,0-.59,0-.65.28s.31.42.56.51c2.63.86,5.26,1.76,8.1,1.32a2.63,2.63,0,0,1,.74,0C214.39,86.9,214.44,87,214.6,87.19Zm4.17-13.78a2.6,2.6,0,0,0-.31-.48A6.63,6.63,0,0,0,212,71a17.09,17.09,0,0,1-6,1,33.69,33.69,0,0,0-4,.25c-.5,0-1,.16-1,.72s.61.3.95.31a25.53,25.53,0,0,1,5.85.52c.32.08.66.26,1,.09a4.53,4.53,0,0,1,2.82-.06c1.19.14,2.41.59,3.59.19a3.09,3.09,0,0,1,2.75-.07C218.27,74.05,218.7,74,218.77,73.41Zm5.42,1.35a4.06,4.06,0,0,0-1.94-2.7c-.38-.09-.52.16-.35.38C222.54,73.3,223,74.37,224.19,74.76Z"/><path d="M169.65,85.16a1,1,0,0,0-1-.4,33.89,33.89,0,0,1-10.4-1.43c-1.58-.41-3.14-.88-4.8-.39-.57.17-.84-.12-.51-.67A14,14,0,0,1,160,76.14c.27-.11.56-.16.83-.28s.57-.3.52-.63-.45-.39-.72-.35c-2.3.33-4.67.06-6.94.88-1.51.54-3.14.7-4.65,1.4-.83.39-.71-.54-.56-1a8.47,8.47,0,0,1,8.13-6.27,39.59,39.59,0,0,1,6.26.42c3,.33,6.07.7,9.07,1.24,1.37.26,2.77.58,4.12,1a4.7,4.7,0,0,0,4.08-.39c.75-.47,1.07-.24,1.35.54a32.39,32.39,0,0,1,1.83,11.46c0,1.72,0,3.43-.11,5.14,0,.36-.06.89-.48.94s-.49-.49-.6-.83a10,10,0,0,0-2.89-4.48,1.51,1.51,0,0,0-2.35-.13c-5,3.89-10.61,4.61-16.61,2.74a2.57,2.57,0,0,1-.45-.2c-.07,0-.1-.13-.46-.6C163.11,87.36,166.32,86.39,169.65,85.16Zm1-12c.48,0,1.15,0,1.82,0,.19,0,.48,0,.5-.23a.85.85,0,0,0-.25-.54c-.25-.27-.61-.22-.94-.26-1.88-.19-3.76-.2-5.64-.25a9.46,9.46,0,0,1-3.67-.55,7.55,7.55,0,0,0-4.15-.46,9.54,9.54,0,0,1-2.24.18c-2.19-.34-3.69.71-5,2.26-.27.33-.85.78-.49,1.14s.75-.23,1.07-.51.9-.61.92-.07c0,1.34.71.51,1.13.43,1.22-.26,2.42-1.23,3.62-.73a7,7,0,0,0,4,.17,37.08,37.08,0,0,1,4.34-.09C167.28,73.58,168.86,73.3,170.63,73.19Z"/><path d="M123.17,144.55a3.47,3.47,0,0,0,1.26-2.57,2.37,2.37,0,0,0,0-.46,4.65,4.65,0,0,0-2-3.26,5.15,5.15,0,0,0-4.67-.25,7.35,7.35,0,0,0-2.21,1.31,9.24,9.24,0,0,0-3.18,6.79c0,.2,0,.39,0,.59a8.24,8.24,0,0,1-.18-3.49,8.14,8.14,0,0,1,2.22-4l.69-.72,1.18-1c1.85-1.54,3.88-2.79,5.8-4.22,3.34-2.47,6.15-6,5.88-10.18-.24-3.77-1.91-7.51-5.37-9.52a9.84,9.84,0,0,0-5.53-1.39,7.48,7.48,0,0,0-2.16.48,6.25,6.25,0,0,0-3.49,3.07,9.34,9.34,0,0,1,2-1,6.27,6.27,0,0,1,2.66-.48,5.51,5.51,0,0,1,3.13.86,4,4,0,0,0-2.3.2,5.41,5.41,0,0,0-2.37,1.84,3.13,3.13,0,0,1,3.28.71A7,7,0,0,1,119.6,122c.24,2.66-.46,4.43-1.92,6.76a39.52,39.52,0,0,1-5.46,6.33l-.34.35a6,6,0,0,0,.22-4.16c-.4-1.18-1.62-3-3.77-2.89,0,0,1.12.47.71,2.38a8.49,8.49,0,0,1-.52,1.62c-.47,1.09-1,2.17-1.42,3.29a15,15,0,0,0-1.07,6.23,12.53,12.53,0,0,0,1.94,6,19.82,19.82,0,0,0,1.21,1.64,16.8,16.8,0,0,0,3.62,3.57c1.73,1.24,4.27,2.85,6.23,4.5,1,.81,1.16,1,2,1.81a29.38,29.38,0,0,1,3.06,3.3,16.2,16.2,0,0,0-3.31-4.63c-1.19-1.13-3.73-3.12-5.05-6.53a6.73,6.73,0,0,1,.92-6.84,8,8,0,0,1,3-2.2,3.61,3.61,0,0,1,2.15-.23C123.62,142.7,123.07,144.59,123.17,144.55Zm-1-3.2a4.59,4.59,0,0,0-2.76.26,8.84,8.84,0,0,0-3.5,2.54,7.69,7.69,0,0,0-1.06,7.76,13.48,13.48,0,0,0,1,2.12l-.65-.46c-.66-.44-1.27-.86-1.81-1.25A16,16,0,0,1,110,149s0,0,0,0a13.74,13.74,0,0,1-1.13-1.54A11.56,11.56,0,0,1,107,141.8a14.05,14.05,0,0,1,1-5.85c.27-.74.6-1.46,1-2.22.16-.33.3-.67.45-1a9.51,9.51,0,0,0,.58-1.8,4.69,4.69,0,0,0,.11-.94,4.54,4.54,0,0,1,1,1.6,5.07,5.07,0,0,1-.22,3.54c-.16.42-.73,2.33-.35,3.28,0,0,1.89-2.23,2-2.34s.23-.23.33-.35c.3-.3.6-.6.89-.91a33.31,33.31,0,0,0,4.7-5.57c1.52-2.42,2.34-4.4,2.06-7.36a7.85,7.85,0,0,0-2.1-4.72,4.24,4.24,0,0,0-1.46-.92l.17-.07a3.16,3.16,0,0,1,1.75-.15c1.53.34,2.51,2.36,2.51,2.36a5.31,5.31,0,0,0-1.74-4.1,6.13,6.13,0,0,0-3.38-1h-.13a5,5,0,0,1,.85-.12,8.85,8.85,0,0,1,5,1.26c2.87,1.66,4.65,4.86,4.9,8.78.27,4.17-2.83,7.38-5.47,9.34-.71.52-1.46,1-2.17,1.53-1.23.85-2.5,1.73-3.68,2.71l-1.2,1-.06,0-.7.74a8.89,8.89,0,0,0-2.47,4.48,5.59,5.59,0,0,0,.12,3,6.23,6.23,0,0,0,2.06,3.33,14.14,14.14,0,0,1-.24-3.25,8.59,8.59,0,0,1,3-6.16,6.87,6.87,0,0,1,1.91-1.14,4.3,4.3,0,0,1,3.78.17,3.81,3.81,0,0,1,1.59,2.59,1.88,1.88,0,0,1,0,.4A2.64,2.64,0,0,0,122.13,141.35Z"/><path d="M143.08,202.65a43,43,0,0,1-11.16,2.64c4.67,4.2,9.32,2.79,10.44,2.36l.25-.1c.26.67,2.17,1.81,4.26,1.22a7.71,7.71,0,0,0,.81-.26c3-1.15,3.41-3.36,5.54-4.18a4.45,4.45,0,0,1,.78-.2c3.18-.61,6.31,1.58,6.65,1.82C155.77,198.11,147.26,201.4,143.08,202.65Zm10.76.53a5,5,0,0,0-1,.27,6.8,6.8,0,0,0-2.63,2,7.25,7.25,0,0,1-2.92,2.16,7.17,7.17,0,0,1-.7.23,3.23,3.23,0,0,1-3.1-.69,1,1,0,0,0-.54-.51,1.14,1.14,0,0,0-.73,0l-.06,0-.18.07a8.68,8.68,0,0,1-7.54-.8,46.82,46.82,0,0,0,8.25-2.18,6.42,6.42,0,0,1,.62-.21l.87-.27c3.32-1,8.36-2.6,12.4-.11A7.86,7.86,0,0,0,153.84,203.18Z"/><path d="M152.58,199.29l.37.27S152.8,199.44,152.58,199.29Z"/><path d="M134,183.37a3.64,3.64,0,0,0,1.42-3.56,4.37,4.37,0,0,0-2.16.29,4.7,4.7,0,0,0-1.41.85c.72-3.08-2.75-4.53-2.75-4.53.12.22,1.72,6-6.25,10.41,6-1.81,11.18-1.7,15.35.41A4.25,4.25,0,0,0,134,183.37Zm-6.89,1.51a10,10,0,0,0,3.19-6.39,2.52,2.52,0,0,1,.59,2.26,1,1,0,0,0,.45,1,1,1,0,0,0,.86.05.83.83,0,0,0,.3-.18,3.59,3.59,0,0,1,1.11-.66,4.31,4.31,0,0,1,.82-.21,2.16,2.16,0,0,1-1,1.81.94.94,0,0,0,.5,1.74,3.12,3.12,0,0,1,2.51,1.14A20.29,20.29,0,0,0,127.13,184.88Z"/><path d="M120.36,190.55l-.8.33c-2.9,1.15-5,2.1-6.73,2.78a15.18,15.18,0,0,1-5.79,1.21c-2.63,0-4.9-2.47-2.89-4.5a5.28,5.28,0,0,0-1,.29c-3.75,1.43-3.17,5.44.25,6.24,0,0,.75,4.37,8.6,1.36l.26-.1c1.77-.71,5.08-3,8.83-4.46a16.84,16.84,0,0,1,5.1-1.19,4.78,4.78,0,0,0,4.55,4.31c-.75-1.22.5-3.78,3.53-4.95,2.24-.86,5.44-1,9.54.73C134.75,185.78,124.89,188.82,120.36,190.55ZM134,191a7,7,0,0,0-4.17,3.81,4,4,0,0,0-.19.76,3.67,3.67,0,0,1-2.4-3.11.93.93,0,0,0-1-.88,17.56,17.56,0,0,0-5.42,1.24,47.42,47.42,0,0,0-6.18,3.07,25,25,0,0,1-2.68,1.4,1.34,1.34,0,0,1-.24.09c-3.5,1.35-5.3,1.08-6.19.62a2,2,0,0,1-1.08-1.26.94.94,0,0,0-.73-.75,2.44,2.44,0,0,1-2.09-2.1,2.07,2.07,0,0,1,.79-1.66,2.76,2.76,0,0,0,.24,1,4.73,4.73,0,0,0,4.37,2.59,16.27,16.27,0,0,0,6.15-1.27c.91-.35,1.87-.77,3-1.24s2.34-1,3.78-1.56l.79-.31c6.19-2.37,11.78-2.75,16.71-1.14A10.72,10.72,0,0,0,134,191Z"/><path d="M134.34,197c-1.07.42-2,.83-2.81,1.13-8.69,3.34-11.87,1.46-15.06-.34,2.24,8.48,10.33,6.55,15.88,4.42,1.06-.4,2-.81,2.82-1.16.65-.28,1.28-.54,1.89-.77,9.82-3.77,14.27-1.8,15.52-1C145,193.79,138.63,195.38,134.34,197Zm2.38,2.39c-.63.24-1.28.51-1.92.78s-1.72.74-2.8,1.15c-5,1.91-8.59,2.27-11,1.07a5.89,5.89,0,0,1-2.62-2.52c2.85,1.28,6.5,1.85,13.53-.85.39-.14.8-.31,1.23-.49s1-.42,1.59-.63a17,17,0,0,1,11.56-.79A32.14,32.14,0,0,0,136.72,199.41Z"/><path d="M123.87,166c-4.74-7.44-13.16-9.29-20.47-6.49a20.59,20.59,0,0,0-2,.92c6.32-1.69,9.52.77,9.61.84-8.52-2.72-13.22,3.53-22,1.76,8.45,8.75,14.39,1.93,24.64,2.9,2.6.24,7.07,2,8.85,5,1.88,3.25,2.66,8-.71,11.41a5.73,5.73,0,0,1-1.65.92c-1.87.72-4.8,1-6.4-2.46s3-4.84,2.88-4.94a4.62,4.62,0,0,0-4.29-.35c-2.62,1-4.66,3.94-3.21,7.13,1.55,3.42,5.74,4.42,9.75,2.87a12.38,12.38,0,0,0,3.9-2.42C129.29,177.23,125.3,168.27,123.87,166ZM110,182.3A3.93,3.93,0,0,1,110,179a4.87,4.87,0,0,1,2.71-2.54,4.38,4.38,0,0,1,1.56-.29,4.59,4.59,0,0,0-1.58,1.93,3.94,3.94,0,0,0,.19,3.17,5.4,5.4,0,0,0,5.61,3.44C114.75,186.09,111.29,185.11,110,182.3Zm13.33-11.8c-1.95-3.35-6.79-5.23-9.59-5.5a32.28,32.28,0,0,0-9.77.86c-4.35.88-7.93,1.61-12.08-1.51a25.78,25.78,0,0,0,8-1.47c3.4-1,6.59-2,10.76-.67l1.81.62a2.52,2.52,0,0,0-.83-2.28,8.07,8.07,0,0,0-2.79-1.25,15.81,15.81,0,0,1,5.46.57,15.31,15.31,0,0,1,8.73,6.68c0,.07,3.54,5.82,2,11.27A12.24,12.24,0,0,0,123.35,170.5Z"/><path d="M103.62,144.38a13.67,13.67,0,0,1,.64-9.13c-4,2.13-3.82,7-3.82,7-.79.3-3.41,3.17.26,7,3,3.13,9.26,5.24,10,4.93C108.47,152.16,105.13,149.72,103.62,144.38Zm-2.19,4.2c-1.27-1.32-1.82-2.63-1.6-3.81a2.62,2.62,0,0,1,1-1.62,1,1,0,0,0,.63-.93,8.33,8.33,0,0,1,.87-3.62,14.17,14.17,0,0,0,.37,6.06,17.08,17.08,0,0,0,4.37,7.48A18.22,18.22,0,0,1,101.43,148.58Z"/><path d="M109,187.19c-3.36-1.91-6.83-8.53-1-12.95a11.44,11.44,0,0,1,2.59-1.46,9,9,0,0,1,8.7,1.43c-2.08-4.69-7.7-5.74-12.33-4a11,11,0,0,0-5.15,3.93,8.81,8.81,0,0,1,5.12-4.75,9.06,9.06,0,0,1,1.53-.45c-1-.87-2.83-.85-4.7-.34a7,7,0,0,0-.81.27A9.71,9.71,0,0,0,98,182c4.07,8.14,13.29,9.05,19,6.86A16.22,16.22,0,0,1,109,187.19Zm-10.15-5.63a8.58,8.58,0,0,1-.17-7.07,8.37,8.37,0,0,1,4.65-4.69,6.2,6.2,0,0,1,.69-.23c.31-.08.6-.15.88-.2a9.27,9.27,0,0,0-4,4.47,5.3,5.3,0,0,0,.1,3.84,9.23,9.23,0,0,1,1.63-3,10.44,10.44,0,0,1,12.79-3.3,9.37,9.37,0,0,0-5.15.48,12,12,0,0,0-2.85,1.61,8,8,0,0,0-3.55,6.95,9.8,9.8,0,0,0,4.6,7.58,11.62,11.62,0,0,0,1.94.87A13.09,13.09,0,0,1,98.85,181.56Z"/><path d="M94.4,179.66c-1.38-6.86,3.51-9.49,3.51-9.49a5.6,5.6,0,0,0-2.74.35,8,8,0,0,0-4.56,9c1.13,4.64,4.55,7.67,9.63,8.63C99.92,188,95.83,186.81,94.4,179.66Zm-2.83-.41a7.11,7.11,0,0,1,3.33-7.56,10.11,10.11,0,0,0-1.48,8.18A16.29,16.29,0,0,0,95.31,185,10,10,0,0,1,91.57,179.25Z"/><path d="M267.45,135.66c-.41-1.12-.94-2.2-1.42-3.29a8.46,8.46,0,0,1-.51-1.62c-.42-1.91.71-2.38.71-2.38-2.15-.16-3.37,1.71-3.78,2.89a5.84,5.84,0,0,0,.23,4.16l-.34-.35a40.1,40.1,0,0,1-5.47-6.33c-1.45-2.33-2.16-4.1-1.91-6.76a7,7,0,0,1,1.84-4.15,3.1,3.1,0,0,1,3.27-.71,5.49,5.49,0,0,0-2.37-1.84,4,4,0,0,0-2.31-.2,5.6,5.6,0,0,1,3.15-.86,6.26,6.26,0,0,1,2.65.48,9.42,9.42,0,0,1,2,1,6.15,6.15,0,0,0-3.47-3.07,7.47,7.47,0,0,0-2.17-.48,9.91,9.91,0,0,0-5.54,1.39c-3.45,2-5.11,5.75-5.36,9.52-.26,4.21,2.54,7.71,5.87,10.18,1.94,1.43,4,2.68,5.81,4.22l1.18,1,.69.72a7.29,7.29,0,0,1,2.05,7.48c0-.2,0-.39,0-.59a9.21,9.21,0,0,0-3.18-6.79,7.47,7.47,0,0,0-2.21-1.31,5.18,5.18,0,0,0-4.68.25,4.71,4.71,0,0,0-2,3.26,3.4,3.4,0,0,0,1.24,3s0,0,0,0c0-.24-.33-1.86,1.28-2.25a3.66,3.66,0,0,1,2.17.23,8,8,0,0,1,3,2.2,6.8,6.8,0,0,1,.92,6.84c-1.32,3.41-3.88,5.4-5,6.53a15.82,15.82,0,0,0-3.31,4.63,27.63,27.63,0,0,1,3.06-3.3c.84-.79,1-1,2-1.81,2-1.65,4.5-3.26,6.23-4.5a16.75,16.75,0,0,0,3.61-3.57,14.65,14.65,0,0,0,1.2-1.64,12.77,12.77,0,0,0,2-6A14.86,14.86,0,0,0,267.45,135.66Zm.09,6.14a11.88,11.88,0,0,1-1.8,5.56,16.72,16.72,0,0,1-1.14,1.54l0,0a15.57,15.57,0,0,1-3.41,3.37c-.53.39-1.15.81-1.8,1.25l-.65.46a13.48,13.48,0,0,0,1-2.12,7.64,7.64,0,0,0-1.06-7.76,8.73,8.73,0,0,0-3.49-2.54,4.61,4.61,0,0,0-2.77-.26,2.64,2.64,0,0,0-1.31.7c0-.12,0-.25,0-.4a3.79,3.79,0,0,1,1.6-2.59,4.3,4.3,0,0,1,3.78-.17A6.76,6.76,0,0,1,258.4,140a8.54,8.54,0,0,1,3,6.16,14.84,14.84,0,0,1-.24,3.25,6.27,6.27,0,0,0,2-3.33,5.71,5.71,0,0,0,.14-3,8.84,8.84,0,0,0-2.48-4.48c-.23-.25-.46-.5-.7-.74l-.05,0-1.21-1c-1.19-1-2.45-1.86-3.67-2.71-.72-.49-1.46-1-2.18-1.53-2.65-2-5.73-5.17-5.46-9.34.24-3.92,2-7.12,4.89-8.78a8.88,8.88,0,0,1,5-1.26,5.42,5.42,0,0,1,.85.12h-.14a6.1,6.1,0,0,0-3.37,1,5.31,5.31,0,0,0-1.74,4.1s1-2,2.51-2.36a3.13,3.13,0,0,1,1.74.15l.16.07a4.07,4.07,0,0,0-1.44.92,7.85,7.85,0,0,0-2.1,4.72c-.28,3,.54,4.94,2,7.36a33.79,33.79,0,0,0,4.7,5.57l.89.91.33.35c.11.11,2,2.34,2,2.34.38-1-.19-2.86-.34-3.28a5.07,5.07,0,0,1-.22-3.54,4.3,4.3,0,0,1,1-1.6,5.63,5.63,0,0,0,.12.94,9.51,9.51,0,0,0,.57,1.8c.16.34.3.68.46,1,.34.76.68,1.48.94,2.22A13.74,13.74,0,0,1,267.54,141.8Z"/><path d="M231.47,202.65c-4.17-1.25-12.69-4.54-17.56,3.3.34-.24,3.47-2.43,6.65-1.82a4,4,0,0,1,.76.2c2.14.82,2.54,3,5.56,4.18a7.71,7.71,0,0,0,.81.26c2.09.59,4-.55,4.26-1.22l.25.1c1.11.43,5.77,1.84,10.44-2.36A42.87,42.87,0,0,1,231.47,202.65Zm1.07,4.11-.18-.07-.08,0a1.11,1.11,0,0,0-.72,0,1,1,0,0,0-.53.51,3.23,3.23,0,0,1-3.1.69c-.24-.07-.48-.14-.71-.23a7.07,7.07,0,0,1-2.91-2.16,6.84,6.84,0,0,0-2.64-2,4.75,4.75,0,0,0-.95-.27,7.86,7.86,0,0,0-2.78,0c4-2.49,9.08-.92,12.4.11l.87.27a5,5,0,0,1,.6.21,46.91,46.91,0,0,0,8.27,2.18A8.67,8.67,0,0,1,232.54,206.76Z"/><path d="M222,199.29l-.37.27A3.12,3.12,0,0,1,222,199.29Z"/><path d="M245.44,176.42s-3.48,1.45-2.76,4.53a4.62,4.62,0,0,0-1.42-.85,4.27,4.27,0,0,0-2.14-.29,3.6,3.6,0,0,0,1.42,3.56,4.25,4.25,0,0,0-4.2,3.87c4.17-2.11,9.34-2.22,15.35-.41C243.72,182.39,245.31,176.64,245.44,176.42Zm-7.36,9.05a3.07,3.07,0,0,1,2.49-1.14,1,1,0,0,0,.91-.67,1,1,0,0,0-.39-1.07,2.2,2.2,0,0,1-1-1.81,4.13,4.13,0,0,1,.82.21,3.77,3.77,0,0,1,1.12.66.83.83,0,0,0,.3.18,1,1,0,0,0,.85-.05.92.92,0,0,0,.45-1,2.56,2.56,0,0,1,.6-2.26,10,10,0,0,0,3.19,6.39A20.27,20.27,0,0,0,238.08,185.47Z"/><path d="M271.35,190.66a5.42,5.42,0,0,0-.94-.29c2,2-.26,4.5-2.9,4.5a15.05,15.05,0,0,1-5.78-1.21C260,193,257.9,192,255,190.88c-.24-.11-.52-.21-.81-.33-4.51-1.73-14.37-4.77-23.48,2,4.1-1.7,7.29-1.59,9.52-.73,3.05,1.17,4.28,3.73,3.55,4.95a4.76,4.76,0,0,0,4.53-4.31,17,17,0,0,1,5.12,1.19c3.75,1.44,7.05,3.75,8.83,4.46l.26.1c7.85,3,8.6-1.36,8.6-1.36C274.53,196.1,275.1,192.09,271.35,190.66Zm-.5,5.31a.94.94,0,0,0-.72.75,2,2,0,0,1-1.08,1.26c-.89.46-2.7.73-6.21-.62l-.24-.09a27.11,27.11,0,0,1-2.66-1.4,49.41,49.41,0,0,0-6.18-3.07,17.62,17.62,0,0,0-5.43-1.24.93.93,0,0,0-1,.88,3.7,3.7,0,0,1-2.39,3.11,3.44,3.44,0,0,0-.21-.76,7,7,0,0,0-4.15-3.81,10.78,10.78,0,0,0-3.43-.67c4.93-1.61,10.52-1.23,16.7,1.14l.8.31c1.44.57,2.69,1.1,3.78,1.56s2.07.89,3,1.24a16.27,16.27,0,0,0,6.15,1.27,4.75,4.75,0,0,0,4.38-2.59,3.21,3.21,0,0,0,.24-1,2,2,0,0,1,.77,1.66A2.4,2.4,0,0,1,270.85,196Z"/><path d="M243,198.15c-.81-.3-1.74-.71-2.82-1.13-4.28-1.64-10.61-3.23-18.23,2.28,1.24-.8,5.7-2.77,15.52,1,.6.23,1.23.49,1.87.77.81.35,1.78.76,2.84,1.16,5.55,2.13,13.64,4.06,15.88-4.42C254.88,199.61,251.71,201.49,243,198.15Zm10.57,4.26c-2.45,1.2-6.07.84-11.06-1.07-1.06-.41-2-.83-2.78-1.15s-1.29-.54-1.92-.78a32.26,32.26,0,0,0-9.54-2.28,17.05,17.05,0,0,1,11.57.79c.56.21,1.08.42,1.58.63s.85.35,1.23.49c7,2.7,10.69,2.13,13.52.85A5.85,5.85,0,0,1,253.6,202.41Z"/><path d="M260.92,166c10.24-1,16.18,5.85,24.62-2.9-8.75,1.77-13.43-4.48-22-1.76.1-.07,3.28-2.53,9.61-.84a20.43,20.43,0,0,0-2-.92c-7.31-2.8-15.73-.95-20.47,6.49-1.43,2.24-5.42,11.2,1.11,17.12a12.45,12.45,0,0,0,3.89,2.42c4,1.55,8.21.55,9.76-2.87,1.45-3.19-.61-6.12-3.21-7.13a4.64,4.64,0,0,0-4.3.35c-.14.1,4.54,1.35,2.87,4.94s-4.52,3.18-6.39,2.46a5.64,5.64,0,0,1-1.64-.92c-3.38-3.43-2.6-8.16-.71-11.41C253.83,168,258.31,166.2,260.92,166Zm.8,15.31a3.9,3.9,0,0,0,.19-3.17,4.66,4.66,0,0,0-1.58-1.93,4.34,4.34,0,0,1,1.56.29,4.86,4.86,0,0,1,2.72,2.54,3.93,3.93,0,0,1-.07,3.3c-1.27,2.81-4.73,3.79-8.42,2.41A5.38,5.38,0,0,0,261.72,181.27ZM251.21,170.5a12.1,12.1,0,0,0-1.66,7.32c-1.55-5.45,1.93-11.2,2-11.27a15.29,15.29,0,0,1,8.74-6.68,15.7,15.7,0,0,1,5.44-.57,8,8,0,0,0-2.77,1.25,2.46,2.46,0,0,0-.83,2.28l1.8-.62c4.16-1.32,7.37-.36,10.75.67a26,26,0,0,0,8,1.47c-4.14,3.12-7.72,2.39-12.09,1.51a32.11,32.11,0,0,0-9.75-.86C258,165.27,253.15,167.15,251.21,170.5Z"/><path d="M274.12,142.27s.16-4.89-3.83-7a13.64,13.64,0,0,1,.65,9.13c-1.51,5.34-4.85,7.78-7.13,9.8.79.31,7-1.8,10-4.93C277.53,145.44,274.91,142.57,274.12,142.27Zm-1,6.31a17.92,17.92,0,0,1-5.61,3.56,17,17,0,0,0,4.38-7.48,14.19,14.19,0,0,0,.38-6.06,8.24,8.24,0,0,1,.86,3.62,1,1,0,0,0,.63.93,2.62,2.62,0,0,1,1,1.62C274.94,146,274.39,147.26,273.12,148.58Z"/><path d="M271.57,168.91a6.83,6.83,0,0,0-.8-.27c-1.88-.51-3.69-.53-4.71.34a9.29,9.29,0,0,1,1.54.45,8.84,8.84,0,0,1,5.12,4.75,11,11,0,0,0-5.16-3.93c-4.63-1.78-10.24-.73-12.33,4a9,9,0,0,1,8.69-1.43,10.88,10.88,0,0,1,2.6,1.46c5.87,4.42,2.4,11-1,12.95a16.16,16.16,0,0,1-7.93,1.67c5.69,2.19,14.91,1.28,19-6.86A9.7,9.7,0,0,0,271.57,168.91Zm4.14,12.65a13.1,13.1,0,0,1-11.58,7.33,12.72,12.72,0,0,0,1.93-.87,9.78,9.78,0,0,0,4.6-7.58,8,8,0,0,0-3.54-6.95,12.18,12.18,0,0,0-2.85-1.61,9.41,9.41,0,0,0-5.16-.48,10.46,10.46,0,0,1,12.8,3.3,9.67,9.67,0,0,1,1.63,3,5.36,5.36,0,0,0,.1-3.84,9.27,9.27,0,0,0-4-4.47c.27,0,.56.12.87.2a5.73,5.73,0,0,1,.7.23,8.34,8.34,0,0,1,4.63,4.69A8.5,8.5,0,0,1,275.71,181.56Z"/><path d="M279.38,170.52a5.54,5.54,0,0,0-2.73-.35s4.87,2.63,3.51,9.49c-1.43,7.15-5.52,8.38-5.85,8.46,5.07-1,8.51-4,9.63-8.63A8,8,0,0,0,279.38,170.52Zm3.6,8.73a10,10,0,0,1-3.73,5.77,16.3,16.3,0,0,0,1.88-5.15,10,10,0,0,0-1.48-8.18A7.09,7.09,0,0,1,283,179.25Z"/></g></g></svg>
