<svg xmlns="http://www.w3.org/2000/svg" viewBox="0 0 301.43 308.72"><defs><style>.cls-1{stroke:#231f20;stroke-miterlimit:10;}</style></defs><g id="Layer_2" data-name="Layer 2"><g id="Layer_2-2" data-name="Layer 2"><path class="cls-1" d="M.19,252.48c3.6-1.48,7.25-1.65,10.59.33a59.49,59.49,0,0,1,7.76,5.79c3.59,3,7.12,6.13,11.74,7.53a16.32,16.32,0,0,0,8.14.71c6-1.25,9-9.44,5.24-14.28a5.39,5.39,0,0,0-3.95-2.19c-1.76-.13-3.55,0-5.48,0,0,4.14,0,8.24,0,12.33,0,.32.47.64.71.93H29.56a4.59,4.59,0,0,0,.53-1.49q.06-11,0-21.91a4.27,4.27,0,0,0-.64-1.52c3.71,0,7.86-.17,12,.07a5.29,5.29,0,0,1,4.89,4.15,5.46,5.46,0,0,1-1.94,6c-.19.15-.37.31-.55.47s0,.08-.09.22a8.14,8.14,0,0,1,5.89,5.75c1.19,4.15-.91,8.61-5,10.82-3.7,2-7.69,2.08-11.73,1.7-6.14-.58-11.32-3.36-16-7.19-1.64-1.35-3.25-2.74-4.91-4.07C8.5,253.84,4.94,251.49.19,252.48ZM34.3,239.54v9.7a39.77,39.77,0,0,0,4.51,0c2.41-.28,3.92-2.35,3.81-5s-1.73-4.53-4.17-4.68C37.12,239.48,35.77,239.54,34.3,239.54Z"/><path d="M64.78,291.68c4-1.62,8-1.42,11.59,1.05,3,2.12,5.82,4.64,8.66,7,3.33,2.8,6.83,5.29,11.21,6.07a22.06,22.06,0,0,0,5.61.33c4.68-.43,7.67-3.22,9.28-7.48a17.69,17.69,0,0,0-.37-13.84c-1.37-3.11-3.57-5.4-7.11-6a19.37,19.37,0,0,0-2.23-.12c0,.49-.11.86-.11,1.23,0,7.11,0,14.22,0,21.33a5.38,5.38,0,0,0,.47,1.51H96.47a4.7,4.7,0,0,0,.69-1.62c0-7.26,0-14.52,0-21.78,0-.85-.13-1.43-1.18-1.41,4-.15,8-.43,11.81.95,6.19,2.23,9.91,8.69,9.14,15.83-.67,6.25-5.62,11.15-12.25,12.12a28.06,28.06,0,0,1-22.13-6.09c-2.52-2-4.94-4.05-7.46-6C72.1,292.46,68.81,290.85,64.78,291.68Z"/><path d="M35.31,290.33,39.64,295l1.11-3.06,3.24.5-1.85,4.72A7.7,7.7,0,0,0,50,299.19c-2.42,2.86-5.27,3-9.9.53a11.11,11.11,0,0,1-8.44,3.1c-2.32-.14-4.42-.8-5.59-3s-.57-4.31.68-6.17a31.5,31.5,0,0,1,3.45-3.72,32.84,32.84,0,0,1-1.57-3.29,4.1,4.1,0,0,1,2.62-5.6,7.79,7.79,0,0,1,5.68-.07,3.49,3.49,0,0,1,2.22,4.88,9,9,0,0,1-1.62,2.53A19.46,19.46,0,0,1,35.31,290.33Zm-2.94,1.57c-1.89,1.91-3,3.69-3.13,5.92-.2,3.06,2.41,5,5.15,3.69,1.25-.61,2.17-1.95,3.16-3,.17-.18.06-.86-.15-1.11C35.77,295.54,34.08,293.75,32.37,291.9Zm.72-3.42a5.28,5.28,0,0,0,3-4.23,2.52,2.52,0,0,0-2.19-2.88A2.22,2.22,0,0,0,31.7,284,28.35,28.35,0,0,0,33.09,288.48Z"/><path d="M253.3,302.85c-4.81,0-8.52-1.8-10.56-6.08a11.25,11.25,0,0,1,1.06-12.19c2.92-3.95,9.08-5.3,14.26-3.25,4.47,1.77,7,6.29,6.51,11.48a10.74,10.74,0,0,1-9.27,9.87A17.4,17.4,0,0,1,253.3,302.85Zm-7.5-11.07a12.49,12.49,0,0,0,1.78,7,6.36,6.36,0,0,0,11.1-.23,13.11,13.11,0,0,0-.57-14.25c-2.51-3.85-7.39-3.79-10.07-.06A13,13,0,0,0,245.8,291.78Z"/><path class="cls-1" d="M290,263.66c-5.27-.07-9-1.86-11-6.16a11.24,11.24,0,0,1,1.14-12.18c2.85-3.82,8.78-5.17,13.88-3.32,4.44,1.61,7.06,5.71,6.9,10.82a10.74,10.74,0,0,1-7.85,10.32A24.27,24.27,0,0,1,290,263.66Zm-7.89-11.09a12.72,12.72,0,0,0,1.73,6.91c2.77,4.34,8.71,4.31,11.18-.2a13.14,13.14,0,0,0-.54-14.13c-2.52-3.93-7.45-3.9-10.15-.1A13.1,13.1,0,0,0,282.09,252.57Z"/><path class="cls-1" d="M244.77,263.44l1.31-.27c0-.46.06-.89.06-1.31v-19c0-.76.12-1.59-1.18-1.41,3.78-.11,7.47-.53,11.07.7,7.4,2.53,10.15,11.92,5.12,17.62-2.32,2.64-5.49,3.55-8.83,3.78-2.51.17-5,0-7.54,0Zm5.54-.87c3.63.13,6.39-1.23,8-4.34a11.64,11.64,0,0,0-.72-12.74,7.46,7.46,0,0,0-7.3-3.25Z"/><path d="M149.27,292.66v9.74l1.09.25v.12h-6c.21-.49.67-1,.67-1.6.06-6.38,0-12.76,0-19.14,0-.77.1-1.58-1.09-1.53,4.12,0,8.26-.19,12.37.06,3.17.18,5.29,3.24,5.07,6.65a6,6,0,0,1-5.94,5.44C153.49,292.67,151.46,292.66,149.27,292.66Zm0-.9c2.8-.24,5.83.86,7.56-2.25a5.6,5.6,0,0,0-.34-6.41c-1.89-2.56-4.68-1.52-7.22-1.7Z"/><path d="M268.3,280.49l.15,0c3.46-.64,5.54.62,7.19,3.91,2.7,5.38,6,10.45,9.09,15.65,0,.08.13.14.34.38a10.94,10.94,0,0,0,.17-1.14c0-5.7,0-11.41,0-17.12a5.94,5.94,0,0,0-.47-1.62h2.05a4.53,4.53,0,0,0-.52,1.41q0,9.72,0,19.44a4.8,4.8,0,0,0,.54,1.42c.1,0,0,0-.07,0-3.43.7-5.43-.65-7.06-3.83-2.85-5.58-6.27-10.87-9.47-16.32-.78,1.68-.45,19.3.43,20.08h-2.33a5.24,5.24,0,0,0,.5-1.49q0-9.64,0-19.3A5.16,5.16,0,0,0,268.3,280.49Z"/><path class="cls-1" d="M117.05,241.3h2.38c-.05.58-.12,1.12-.12,1.65q0,6.24,0,12.48a7.69,7.69,0,0,1-7.45,8.16,10.36,10.36,0,0,1-5.92-1,7,7,0,0,1-4.05-6.52V241.75l-1.43-.44h6.3c-.22.38-.71.84-.72,1.32-.06,4.54,0,9.08,0,13.63a11.13,11.13,0,0,0,.17,1.72c.68,4.16,4.43,6.08,8.25,4.23a4.53,4.53,0,0,0,2.54-4c.2-2.3.22-4.63.25-6.94,0-2.81,0-5.61,0-8.41C117.21,242.38,117.11,241.87,117.05,241.3Z"/><path class="cls-1" d="M237.73,241.31h2.48c0,.59-.11,1.13-.11,1.67q0,6.24,0,12.48c0,4.6-2.86,7.86-7.48,8.07a14.11,14.11,0,0,1-5.76-.95,6.56,6.56,0,0,1-4.18-6.54V241.73l-1.48-.41h6.31c-.21.39-.68.86-.68,1.34-.06,4.54,0,9.08,0,13.63A10,10,0,0,0,227,258a5.53,5.53,0,0,0,8.4,4.12,4.41,4.41,0,0,0,2.38-3.9c.16-5.41.18-10.82.24-16.23A2.12,2.12,0,0,0,237.73,241.31Z"/><path class="cls-1" d="M195.89,242.09v3.25a30.51,30.51,0,0,0-2.7-3.64,8,8,0,0,0-9.25-1.43c-2.31,1.29-2.57,3.08-.46,4.65,1.69,1.27,3.64,2.18,5.41,3.35a36.4,36.4,0,0,1,5.47,4c4.68,4.6,3.45,11.5-2.47,14.3a12.82,12.82,0,0,1-12-.3,8,8,0,0,1-4.16-5.21c2.88,5.83,9.57,6.85,13.55,5.46,2.48-.86,4.36-2.37,4.89-5.06a6.41,6.41,0,0,0-2.72-6.75c-2-1.44-4.16-2.61-6.25-3.92a29.65,29.65,0,0,1-2.89-1.93c-3.29-2.65-2.91-7,.76-9.14a9.63,9.63,0,0,1,11.63,2.08,3.3,3.3,0,0,0,.79.56Z"/><path d="M216.54,307.59a25.1,25.1,0,0,1-12.89.55c-6.34-1.25-12.6-2.9-18.92-4.26a42.42,42.42,0,0,0-6.75-.78,7.78,7.78,0,0,0-6,2.17c1.22-2.28,3.38-3,5.81-3.45,0-.41.08-.79.08-1.17q0-9.28,0-18.56c0-.79.13-1.64-1.09-1.57h6.33v.11l-1.1.26V302c1.12.23,2.25.4,3.35.69,4.66,1.24,9.31,2.55,14,3.77C205,307.89,210.71,308.81,216.54,307.59Z"/><path class="cls-1" d="M72.52,260.22v3.29H53.35l1.7-.3V241.69l-1.31-.25v-.11H72.46v3.58c-.63-2.31-2.23-2.74-4.1-2.73h-9V251c2.46,0,4.95.05,7.44,0,.49,0,1-.67,1.44-1v3.56C67.72,252,66.65,252,65.49,252c-2,0-4,0-6.15,0v10.51c3.59,0,7.15.06,10.69,0C71.34,262.46,72,261.44,72.52,260.22Z"/><path d="M121.1,302.63l1.32-.21V280.88l-1.34-.23,0-.13h18.73v3.32a3.2,3.2,0,0,0-3.27-2.42c-3.23-.06-6.47,0-9.83,0v8.84c2.45,0,4.9.06,7.34-.05.54,0,1.05-.68,1.56-1V292a11.55,11.55,0,0,0-2.66-.79c-2.06-.12-4.13,0-6.28,0v10.55c3.58,0,7.09.06,10.6,0,1.35,0,2.09-1,2.54-2.7v3.7H121.11Z"/><path class="cls-1" d="M154.81,251.65l5.53-10.34h2.55c-2.36,4.43-4.74,8.88-7.1,13.34a1.8,1.8,0,0,0-.18.83c0,2.56,0,5.12,0,7.71l1.15.26,0,.12h-5.95c.22-.49.46-1.05.7-1.61,0,0,0-.09,0-.14a21.94,21.94,0,0,0-2.85-13.62c-1-1.74-1.67-3.69-2.57-5.51a6.78,6.78,0,0,0-1.14-1.36h5.93c-.07.26-.31.61-.22.82C152,245.24,153.34,248.32,154.81,251.65Z"/><path d="M207.41,303h-5.66c.11-.37.43-.86.33-1.23-.57-2.14-1.23-4.26-1.88-6.47-2.32,0-4.58,0-6.85,0-.28,0-.73.19-.8.4-.47,1.42-.88,2.86-1.26,4.3,0,.21.18.49.3.78h-2.06a13.25,13.25,0,0,0,.85-1.78c1.74-5.78,3.46-11.55,5.14-17.35.26-.9.62-1.22,1.57-1.2,3,0,3,0,3.81,2.84,1.74,5.88,3.46,11.76,5.25,17.62A9.38,9.38,0,0,0,207.41,303Zm-10.86-20-.28-.05-3.33,11.39h6.93C198.74,290.45,197.65,286.71,196.55,283Z"/><path class="cls-1" d="M87.64,241.26c1.37,4.56,2.72,9,4.06,13.52.72,2.41,1.38,4.83,2.17,7.21A5.79,5.79,0,0,0,95,263.54H89.45c.09-.34.34-.76.25-1.1-.57-2.19-1.22-4.36-1.87-6.59H80.26c-.6,2.5-1.82,4.9-2,7.7h-2a9.05,9.05,0,0,0,1-1.8q2.9-9.5,5.67-19c.31-1.1.72-1.66,2-1.49A19.57,19.57,0,0,0,87.64,241.26Zm-.15,13.57c-1.13-3.76-2.24-7.45-3.47-11.56l-3.47,11.56Z"/><path class="cls-1" d="M211.82,263.58h-6.09c.26-.32.78-.67.78-1,.05-6.71,0-13.43,0-20.1q-4.38-1.26-6.46,2v-3h17.22v3.07c-1.46-2.91-4-2.18-6.39-2.24,0,.49-.1.86-.1,1.24,0,6.18,0,12.37,0,18.56C210.81,262.76,210.7,263.56,211.82,263.58Z"/><path class="cls-1" d="M129.41,242.16c-2.27.2-4.83-.7-6.25,2.42v-3.24h17.19v3.1c-1.44-2.9-4-2.17-6.36-2.24-.05.48-.11.85-.11,1.22,0,6.19,0,12.38,0,18.56a4.74,4.74,0,0,0,.65,1.6h-5.76c.26-.37.78-.75.78-1.14.05-6.53,0-13.05,0-19.58A3.56,3.56,0,0,0,129.41,242.16Z"/><path d="M227,298.22v3.53c-.55,0-1.17-.18-1.59,0-5.63,2.88-13,.29-13.79-8.84a13.17,13.17,0,0,1,1.85-8.34,8.73,8.73,0,0,1,11.42-3.26,8.61,8.61,0,0,0,2.11.4v3.12a12.54,12.54,0,0,0-1.4-2,4.77,4.77,0,0,0-7.52.91,14.39,14.39,0,0,0-2.21,8.7,12.33,12.33,0,0,0,1.93,7,5,5,0,0,0,7.66,1A13.42,13.42,0,0,0,227,298.22Z"/><path d="M171.84,280.63l-1.09.25v21.48l1.39.4h-6.25a4.5,4.5,0,0,0,.66-1.61q.07-9.51,0-19a4.74,4.74,0,0,0-.66-1.62h5.93Z"/><path d="M236.37,302.4l1.09.25,0,.11h-5.93a4.43,4.43,0,0,0,.66-1.61q.08-9.51,0-19a4.55,4.55,0,0,0-.66-1.62h5.93l0,.12-1.09.25Z"/><path class="cls-1" d="M267.73,241.3H274l-1.42.43c0,7,0,13.86,0,20.78,0,.37.55.73.79,1h-5.7c.21-.38.72-.86.72-1.35q.09-9.72,0-19.45C268.46,242.24,268,241.73,267.73,241.3Z"/><path d="M255.35,274.79c-1.6,1-2,3.17-4.23,2.93C252.3,276.59,252.44,274.13,255.35,274.79Z"/><path d="M112.44,109.76c0-.29-.24-.43-.39-.62a27.25,27.25,0,0,1-3.55-5.69,29.74,29.74,0,0,1-2.28-7.89A34,34,0,0,1,106,88a33.44,33.44,0,0,1,8.73-20.3,54.29,54.29,0,0,1,11-9.26c2.46-1.57,5-3,7.56-4.43,3-1.71,6.14-3.26,9.23-4.84a80.7,80.7,0,0,0,11.16-6.77,50.48,50.48,0,0,0,6.23-5.27,32,32,0,0,0,5.2-6.83A17.57,17.57,0,0,0,166.87,26a14.55,14.55,0,0,0,.23-5.18,21.74,21.74,0,0,0-.69-3.47c0-.13-.16-.28,0-.41s.23.23.28.38a32.14,32.14,0,0,1,1.38,5,26.62,26.62,0,0,1,.43,3.67,19.88,19.88,0,0,1-1.27,7.63,37.1,37.1,0,0,1-4.93,9.23,68.86,68.86,0,0,1-7.76,8.87c-1.4,1.36-2.85,2.69-4.31,4A89.34,89.34,0,0,0,139,68a55.72,55.72,0,0,0-8.76,16.72,47.46,47.46,0,0,0-2,9.36,33.48,33.48,0,0,0,4.88,21.77,49.43,49.43,0,0,0,7.95,9.76,53.55,53.55,0,0,0,8.14,6.49c1.12.73,2.24,1.45,3.38,2.16,4.18,2.61,8.32,5.31,12.36,8.14a72,72,0,0,1,6.26,4.88,53.07,53.07,0,0,1,5.62,5.7,20.62,20.62,0,0,1,3.91,6.76,18.41,18.41,0,0,1,1,5.93,14,14,0,0,1-1.44,6.2,19.84,19.84,0,0,1-1.79,3,28.3,28.3,0,0,1-4.86,5.16c-.16.14-.3.36-.62.3,0-.14,0-.28,0-.41a20.86,20.86,0,0,0,.71-3.48,15.9,15.9,0,0,0-.1-4.82,11.1,11.1,0,0,0-2-4.43,18.63,18.63,0,0,0-4-3.89,30.43,30.43,0,0,0-8.38-4.27,55.79,55.79,0,0,0-8.56-2.13c-.24,0-.48-.11-.86-.2.23-.12.32-.21.43-.22,1-.11,2-.23,3.08-.29a46.64,46.64,0,0,1,5.67,0,32.6,32.6,0,0,1,7.27,1.28c1.38.41,2.73.88,4.09,1.33l.72.26c-.22-.28-.32-.44-.45-.58a46.57,46.57,0,0,0-10-8.37,71.31,71.31,0,0,0-10.44-5.43c-3.27-1.38-6.56-2.71-9.84-4.08a106.17,106.17,0,0,1-18.09-9.67,73,73,0,0,1-15.22-13.61,41.85,41.85,0,0,1-6-9.2,34.6,34.6,0,0,1-3-9.8A28.36,28.36,0,0,1,99.28,85.2a47.56,47.56,0,0,1,3.16-7.51c.09-.15.17-.31.27-.46s.07-.06.11-.09.15.16.13.28c-.14.62-.28,1.23-.41,1.85a37.87,37.87,0,0,0-.86,9.38A27,27,0,0,0,105.82,102a40.36,40.36,0,0,0,6.25,7.54,1.57,1.57,0,0,0,.38.22c0,.12,0,.17.16.13,0,.12,0,.16.16.12s.11.13.16.19,0,0,0,0l0,0h0l-.2-.2-.16-.12C112.59,109.8,112.55,109.74,112.44,109.76Z"/><path d="M107.58,47.43c.17,0,.19-.13.25-.22.34-.57.66-1.14,1-1.7a18.65,18.65,0,0,1,5.81-5.95,40.14,40.14,0,0,1,9.88-4.63,75,75,0,0,1,9.23-2.29c3-.56,6-1.09,9.06-1.66a37.85,37.85,0,0,0,6.61-1.82,24.63,24.63,0,0,0,2.34-1.06,11.65,11.65,0,0,0,5.66-6.52,12.73,12.73,0,0,0-.07-9.44,10.4,10.4,0,0,0-.7-1.42,7.35,7.35,0,0,0-4-3.35c-.61-.22-1.25-.39-1.87-.58-.12,0-.25,0-.23-.26a1.59,1.59,0,0,1,.72,0,18.08,18.08,0,0,1,5.29,1.15,10.81,10.81,0,0,1,4.69,3.56,15.26,15.26,0,0,1,2.59,5.42,20,20,0,0,1-.38,11.68,15.62,15.62,0,0,1-5.49,7.6,27.76,27.76,0,0,1-6.67,3.66,38.71,38.71,0,0,1-7.92,2.17c-3,.48-6,1-8.94,1.5a58.24,58.24,0,0,0-9.65,2.42,40.19,40.19,0,0,0-9.53,4.85,25.71,25.71,0,0,0-3.58,3,16.88,16.88,0,0,0-4.58,8.37,29.24,29.24,0,0,0-.66,7.81,1.22,1.22,0,0,1,0,.73.2.2,0,0,1-.32-.08,5.42,5.42,0,0,1-.22-.56,75.18,75.18,0,0,1-3.23-11.47,35.72,35.72,0,0,1-.7-6.68,21.24,21.24,0,0,1,3.45-11.79,27.57,27.57,0,0,1,7.21-7.55,42.85,42.85,0,0,1,9.41-5.1,74,74,0,0,1,9.77-3.12,1.12,1.12,0,0,1,.7,0c0,.19-.2.2-.33.25a54.81,54.81,0,0,0-7.58,3.2,44.82,44.82,0,0,0-8.25,5.28,29.08,29.08,0,0,0-5.06,5.28,20.9,20.9,0,0,0-3.68,8.77,4,4,0,0,0,0,.6l0,.09Z"/><path d="M200.75,145.42a4.34,4.34,0,0,0-.11-.59A26.24,26.24,0,0,0,194.73,134c-.16-.18-.39-.32-.43-.61.08,0,.16,0,.22,0a1.29,1.29,0,0,1,.3.22,34.55,34.55,0,0,1,5.39,5.49,20.9,20.9,0,0,1,4.25,9.73,20.49,20.49,0,0,1-1.6,11.88,16.44,16.44,0,0,1-5.1,6.18.86.86,0,0,1-.19.11l-.13,0a.84.84,0,0,1,0-.32c.31-.66.66-1.3,1-2a13.57,13.57,0,0,0,1-3.17,12.92,12.92,0,0,0-.23-5.25,17.15,17.15,0,0,0-3.63-7.05,38,38,0,0,0-4.14-4.08,63.38,63.38,0,0,0-11.1-7.56c-3.27-1.79-6.62-3.43-10-5s-6.62-3-9.94-4.42c-2.58-1.14-5.15-2.3-7.64-3.62a43.88,43.88,0,0,1-7.41-4.8,38.72,38.72,0,0,1-8.73-9.85,27.71,27.71,0,0,1-3.64-9.23,25.57,25.57,0,0,1-.45-5.86,35.46,35.46,0,0,1,2.39-11.33A70.46,70.46,0,0,1,138,76.39a5.48,5.48,0,0,1,.31-.52s.08,0,.17-.07a.68.68,0,0,1,.07.26c0,.46,0,.91,0,1.36a43.37,43.37,0,0,0,1.71,13.36,31,31,0,0,0,3.16,6.93,49.81,49.81,0,0,0,8,10c.56.55,1.15,1.06,1.72,1.59.1.1.19.21.29.33-.09,0-.14.09-.18.09a.72.72,0,0,1-.2-.09,51.27,51.27,0,0,1-7.92-6.16,26.39,26.39,0,0,1-6.21-9.55c-.5-1.29-.91-2.62-1.36-3.93a2.21,2.21,0,0,0-.32-.68c0,.45.09.9.16,1.34a45.66,45.66,0,0,0,2.34,9.36,29.2,29.2,0,0,0,6.84,10.49,55.2,55.2,0,0,0,11.48,8.81A85.42,85.42,0,0,0,169,124.58q5.24,2.15,10.38,4.53a58.45,58.45,0,0,1,14.3,9.49q3.45,3.08,6.58,6.45c.14.15.22.42.51.36C200.76,145.41,200.77,145.44,200.75,145.42Z"/><path d="M131.62,158.26l.24.27a47.34,47.34,0,0,0,7.43,5.81,36.15,36.15,0,0,0,6,2.88,61.83,61.83,0,0,1,6.76,3,35.56,35.56,0,0,1,6.18,4.05,21.1,21.1,0,0,1,3.74,3.93,16.23,16.23,0,0,1,2.81,6.86,20.92,20.92,0,0,1-1.74,12.3,28.44,28.44,0,0,1-4.4,6.84c-.76.88-1.57,1.71-2.36,2.56-.11.12-.2.3-.42.27-.13-.19,0-.34.07-.49a23.69,23.69,0,0,0,1.37-3.75,17.29,17.29,0,0,0,.69-4.47,13.63,13.63,0,0,0-.86-4.81,17.75,17.75,0,0,0-3.55-5.83,37,37,0,0,0-4.83-4.45c-2.09-1.62-4.22-3.2-6.31-4.81a81.83,81.83,0,0,1-8.4-7.27,43.32,43.32,0,0,1-9.68-14.91,28.9,28.9,0,0,1-1.72-6.71,25,25,0,0,1-.09-5.73,41.79,41.79,0,0,1,1.59-7.92c.07-.24.08-.55.33-.71.25.08.22.27.24.44.09.85.17,1.7.27,2.56a23.4,23.4,0,0,0,5.68,12.7,33.84,33.84,0,0,0,6,5.43,58.23,58.23,0,0,0,10.18,5.74c2,.91,4.07,1.73,6.17,2.45a3.54,3.54,0,0,1,.49.18c.05,0,.06.12.09.19-1,.2-8.09-1.12-11.31-2.15A78.64,78.64,0,0,1,131.62,158.26Z"/><path d="M121.59,133.28c.14.18,0,.33,0,.49a42,42,0,0,0-1.48,5.15,32.64,32.64,0,0,0-.86,7.94,27.66,27.66,0,0,0,1.32,7.49,41.44,41.44,0,0,0,3.63,8.2,73.27,73.27,0,0,0,8,11.4,2.24,2.24,0,0,1,.55.77,1.59,1.59,0,0,1-.31,0,.72.72,0,0,1-.19-.11,67.83,67.83,0,0,1-11.69-8,38.74,38.74,0,0,1-8.13-9.68,28.44,28.44,0,0,1-3.59-9.88,30.84,30.84,0,0,1-.27-7.31A36.13,36.13,0,0,1,111.31,129c.22-.56.46-1.12.7-1.67.07-.15.17-.29.25-.43.22,0,.2.18.19.3-.06.73-.16,1.45-.19,2.18-.08,1.64-.17,3.27-.18,4.91a45.14,45.14,0,0,0,.61,7.52,36.76,36.76,0,0,0,2.38,8.1c.48,1.13,1,2.24,1.54,3.36a4,4,0,0,0,.25.45c.19-.09.11-.23.11-.34s0-.25,0-.38c-.08-1.15-.19-2.31-.22-3.46a26.89,26.89,0,0,1,2.58-12.23,40.08,40.08,0,0,1,1.89-3.62C121.29,133.53,121.34,133.31,121.59,133.28Z"/><path d="M157.73,229.25a3.08,3.08,0,0,1-.25-.24,16.57,16.57,0,0,1-2.74-6.33A10.55,10.55,0,0,1,155,218a20.63,20.63,0,0,1,1.54-3.85,42.49,42.49,0,0,1,2.71-4.54c1.49-2.21,3-4.41,4.5-6.62q1.41-2.11,2.74-4.26a25.58,25.58,0,0,0,2.11-4.26,13.45,13.45,0,0,0,1-5.54,19.26,19.26,0,0,0-1.11-5.3,29.42,29.42,0,0,0-2.85-5.83,3.26,3.26,0,0,1-.26-.53s0,0,0-.06.23,0,.32.09c.72.59,1.45,1.17,2.14,1.8a26.31,26.31,0,0,1,3.91,4.39,15.43,15.43,0,0,1,2.2,4.29,12.89,12.89,0,0,1-.21,8.3,23.7,23.7,0,0,1-2.25,4.61,51.63,51.63,0,0,1-3,4.42c-1.68,2.2-3.38,4.39-5.07,6.59-1.09,1.42-2.15,2.86-3.11,4.37a25.87,25.87,0,0,0-2.13,4,11.9,11.9,0,0,0-1,5.68,16,16,0,0,0,.54,2.74C157.78,228.72,157.93,228.93,157.73,229.25Z"/><path d="M179.57,183.89l.56-.66a39.35,39.35,0,0,0,6.32-9.89,24.82,24.82,0,0,0,1.66-5.4,21.21,21.21,0,0,0,.27-4.36,30.38,30.38,0,0,0-1.62-8.5,47.58,47.58,0,0,0-4.64-10c-.12-.21-.32-.39-.3-.72a1.78,1.78,0,0,1,.28.05.46.46,0,0,1,.18.13,53.11,53.11,0,0,1,7.62,7.52,25,25,0,0,1,3.49,5.64,14.88,14.88,0,0,1,1.31,7.5,17.58,17.58,0,0,1-1.29,5,22.48,22.48,0,0,1-4.76,7.11,40,40,0,0,1-8.51,6.46,1.62,1.62,0,0,1-.42.15S179.68,184,179.57,183.89Z"/><path d="M178.23,13.65c.16.19.25.28.32.38A35.66,35.66,0,0,1,183.43,24a22.12,22.12,0,0,1,.72,8.75,28.67,28.67,0,0,1-1.89,7.36c-.52,1.34-1.1,2.66-1.66,4-.07.17-.09.4-.33.46-.18-.1-.12-.26-.12-.4A20.24,20.24,0,0,0,180,40.7a14.55,14.55,0,0,0-.82-3.37,8.71,8.71,0,0,0-2.92-3.86A14.82,14.82,0,0,0,174,32c-.2-.1-.38-.22-.62-.35l.38-.44c.51-.53,1-1,1.51-1.58a16.16,16.16,0,0,0,3.83-8.17,13.47,13.47,0,0,0-.64-6.69c-.1-.29-.21-.57-.3-.86C178.13,13.9,178.18,13.83,178.23,13.65Z"/><path d="M170.94,84.8c0,.06,0,.15,0,.19s-.24.33-.36.49a34.89,34.89,0,0,0-4.81,8.7,24.22,24.22,0,0,0-1.35,6.25,35.78,35.78,0,0,0,.56,9.47,48.52,48.52,0,0,0,2.25,8.22c.05.16.07.33.12.55-.14-.06-.22-.07-.26-.12a2.4,2.4,0,0,1-.21-.31,102.14,102.14,0,0,1-7.7-15.72q-1.59-4.2-2.77-8.54a4.7,4.7,0,0,1-.12-.51s0-.1,0-.19a3.9,3.9,0,0,1,.45-.16c1.25-.33,2.47-.72,3.67-1.16a24.22,24.22,0,0,0,7.19-4.22,34.83,34.83,0,0,0,2.87-2.69,3.24,3.24,0,0,1,.35-.27S170.9,84.79,170.94,84.8Z"/><path d="M132.72,11.91c.07-.18.1-.32.16-.46a25.68,25.68,0,0,1,4-6.46,14.35,14.35,0,0,1,3.6-3.08A12.7,12.7,0,0,1,150.74.51a22.08,22.08,0,0,1,5.4,2.32c.16.09.38.15.42.38-.13.18-.27.07-.4,0a27.07,27.07,0,0,0-3.2-.89,22.69,22.69,0,0,0-4.65-.52A12.39,12.39,0,0,0,139.87,5c-.53.46-1,1-1.53,1.41.08.23.22.16.34.15l1.2-.11a13.6,13.6,0,0,1,4.5.31,10.94,10.94,0,0,1,6.39,4.54,10,10,0,0,1,1.49,3.12,8.3,8.3,0,0,1,.15,4,13.69,13.69,0,0,1-1.17,3.42,3,3,0,0,1-.25.37s-.05,0-.08,0-.11-.15-.1-.23c.08-.48.19-.94.26-1.42a13.64,13.64,0,0,0,.12-3.38,8.67,8.67,0,0,0-1-3.31,10,10,0,0,0-7.31-5.31,9.75,9.75,0,0,0-5.9.78,17.08,17.08,0,0,0-3.66,2.39C133.18,11.8,133.07,12,132.72,11.91Z"/><path d="M187.38,30.1a1.43,1.43,0,0,1,.35.9,47.79,47.79,0,0,1,.62,9.33,35.68,35.68,0,0,1-.55,5.25,31.32,31.32,0,0,1-2.09,6.76,47.49,47.49,0,0,1-5.43,9.39,4.33,4.33,0,0,1-.38.47s-.13,0-.19,0c-.11-.21,0-.36.09-.51a23.41,23.41,0,0,0,1.35-4.31,17.81,17.81,0,0,0,.31-4.43,25,25,0,0,0-.41-3.45,1,1,0,0,1,.21-.9,32.12,32.12,0,0,0,2.42-3.47,22.37,22.37,0,0,0,3-7.14,31.81,31.81,0,0,0,.67-6.45V30.52A3.79,3.79,0,0,1,187.38,30.1Z"/><path d="M172,61.34a9,9,0,0,1-2.05-.35c-.7-.19-1.4-.41-2.1-.61a7.41,7.41,0,0,0-2.38-.38c-.42,0-.85.08-1.27.13l-.71.09c.12-.27.31-.35.45-.48l.45-.4a4.4,4.4,0,0,0,.37-.38c.13-.15.24-.31.43-.56a5.37,5.37,0,0,0-.93.35c-.28.1-.56.21-.85.29a6.71,6.71,0,0,1-.89.19c-.3,0-.6,0-.9,0a3.16,3.16,0,0,1-.87-.06c0-.17.16-.15.25-.16l.83-.09a3.94,3.94,0,0,0,3-2.11.12.12,0,0,0,0-.08.38.38,0,0,0-.4-.12c-.5.07-1,.13-1.49.24a9.73,9.73,0,0,1-1.28.19c.12-.13.16-.19.21-.21.46-.19.94-.36,1.39-.57a5.15,5.15,0,0,1,3-.42c.67.11,1.35.17,2,.24a6.73,6.73,0,0,0,3.85-.86,12.9,12.9,0,0,0,3.32-2.77,3.74,3.74,0,0,0-.26-.36,5.16,5.16,0,0,0-2.5-1.33l-1-.24a4.35,4.35,0,0,1,.53-.16,4.71,4.71,0,0,1,2.23.3,12.25,12.25,0,0,1,2.25,1.22s0,.08.11.16a6.12,6.12,0,0,1-1.44,2.32c-.52.52-1.09,1-1.64,1.46l-.49.42c.38.12.59-.18.94-.2l.49.21c.55.2,1.08.42,1.64.58a4.44,4.44,0,0,0,2.81-.15l.84-.32c.11.17,0,.24-.1.32a4.64,4.64,0,0,1-2,1.2l-.8.27c.41.2.41.2,1.72-.1-.55,1.32-3.53,2.9-5.8,3a4.14,4.14,0,0,0-1.88-1.84A5,5,0,0,0,172,61.34Z"/><path d="M162.31,4.18a1.1,1.1,0,0,1,.87-.07,21.88,21.88,0,0,1,3.49.93,13.46,13.46,0,0,1,8,7.76,14.7,14.7,0,0,1-.37,12.64,21,21,0,0,1-2.59,4c-.11.12-.25.22-.37.34-.18-.26,0-.43.06-.61a29,29,0,0,0,1.44-4.37,18.4,18.4,0,0,0-1.6-13.12,13.81,13.81,0,0,0-4.94-5.4,22.66,22.66,0,0,0-3.26-1.74Z"/><path d="M160.54,135.36c.19-.09.25-.15.31-.14a2.26,2.26,0,0,1,.43.11A51.65,51.65,0,0,1,171.41,140a30.78,30.78,0,0,1,8.85,8,26.14,26.14,0,0,1,4.67,10.22,24,24,0,0,1,.47,6.16,32.6,32.6,0,0,1-.38,4.06,1.57,1.57,0,0,1-.11.35s-.08,0-.17,0a5.72,5.72,0,0,1,0-.58c0-1.66,0-3.32-.13-5A24.81,24.81,0,0,0,179,149.11a42.11,42.11,0,0,0-6.73-6.48,65,65,0,0,0-10.92-6.86Z"/><path d="M160.39,52.05a3.53,3.53,0,0,1-.3-1.32,6.05,6.05,0,0,1,.54-2.87.64.64,0,0,1,.57-.41,37.67,37.67,0,0,0,7.38-1.87,20.26,20.26,0,0,1,3.42-.9,6.5,6.5,0,0,1,4.18.64,12.76,12.76,0,0,1,3.9,3.3,1.15,1.15,0,0,1,.1.23c-.11.15-.2.08-.28,0-.32-.23-.63-.5-1-.72a15.84,15.84,0,0,0-1.5-.87,6.38,6.38,0,0,0-4.62-.49,24.45,24.45,0,0,0-3.91,1.36c-2.55,1.14-5.08,2.33-7.62,3.5Z"/><path d="M147.89,79.64l2.55-.59a5.47,5.47,0,0,1,2.17.09l2.22.41a9.51,9.51,0,0,0,3.15-.1c.75-.12,1.48-.29,2.22-.44a5,5,0,0,1,2.89.18,12.6,12.6,0,0,0,1.24.35,5,5,0,0,1-1.47,0,5.28,5.28,0,0,0-2.53.09c-.49.13-1,.26-1.45.42a9.56,9.56,0,0,1-5.43.11c-.34-.09-.69-.15-1-.26a7.36,7.36,0,0,0-2.84-.24c-.4,0-.73-.06-1.13-.06A1.56,1.56,0,0,1,147.89,79.64Z"/><path d="M152.66,83.6a7.62,7.62,0,0,1,.79.2,14.18,14.18,0,0,0,2.41.61,3.72,3.72,0,0,0,1.93-.17c.71-.25,1.4-.54,2.1-.82v0c.08.14,0,.23-.09.33a4.21,4.21,0,0,1-3.26,1.46,5.68,5.68,0,0,1-3.79-1.42c-.05,0-.05-.12-.07-.19Z"/><path d="M159.75,72.33c-.24.19-.36.3-.49.39a7.43,7.43,0,0,1-2.3.83C157.45,72.45,158.13,72.13,159.75,72.33Z"/><path d="M152.58,72.33c1.53-.22,2.14.07,2.74,1.21A5,5,0,0,1,152.58,72.33Z"/><path d="M156.18,77.4a3,3,0,0,1-1.37-.33.34.34,0,0,1-.12-.09.29.29,0,0,1,0-.2.19.19,0,0,1,.16-.11,2.21,2.21,0,0,1,.42.12,3.24,3.24,0,0,0,2.13,0,3.13,3.13,0,0,1,.6-.24,1.07,1.07,0,0,1,.4,0,.23.23,0,0,1,.14.15s0,.17-.08.18c-.67.19-.55.26-1.22.43C157.13,77.31,156.25,77.4,156.18,77.4Z"/><path d="M152.67,83.58h-.12l0-.09.07.1Z"/><path d="M159.89,83.42l.06,0s0,0,0,0h-.1Z"/><path d="M109.54,206.61c-1.54-.54-11-2.9-18.85-7.94,2.31,11,10.49,13.83,12.55,14.39l.48.11c-.34,1.24,1.2,4.88,4.84,6.25.5.19,1,.34,1.44.47,5.56,1.5,8.44-1.25,12.38-.18a7.37,7.37,0,0,1,1.34.5c5.52,2.61,7.67,9.68,7.67,9.68C132.63,213.43,116.87,209.2,109.54,206.61Zm14.93,12.07a9.74,9.74,0,0,0-1.65-.62,12.48,12.48,0,0,0-5.92.13,12.74,12.74,0,0,1-6.46.05c-.41-.11-.84-.25-1.27-.41a5.76,5.76,0,0,1-3.73-4.24,1.7,1.7,0,0,0-.24-1.31,1.78,1.78,0,0,0-1-.75l-.13,0-.33-.09a15.49,15.49,0,0,1-10-9.07,82.33,82.33,0,0,0,14.19,5.53l1.1.34,1.53.53c5.86,2,14.77,5.06,18,12.88A13.65,13.65,0,0,0,124.47,218.68Z"/><path d="M99.82,196c1.22.28,2.39.58,3.51.88,18.11,4.89,22.46,12.42,23.42,14.86-5.2-15.94-16-20.3-23.88-22.44-2-.53-3.76-.92-5.24-1.32-16-4.33-18.62-10.38-21.33-16.34-5.7,14.57,8,20.3,18.22,23.07C96.47,195.25,98.28,195.67,99.82,196Zm-23-19.38c2.75,4.82,7.4,9.49,20.38,13,.71.19,1.47.38,2.29.58s1.91.47,2.94.74c5.74,1.56,12.41,4.24,17.49,11a57,57,0,0,0-16.13-6.74c-1.16-.32-2.36-.62-3.59-.9s-3.26-.74-5.22-1.27c-9.18-2.49-14.76-5.78-17-10.09A10.49,10.49,0,0,1,76.81,176.64Z"/><path d="M185.22,229.89s2.15-7.07,7.67-9.68a7.11,7.11,0,0,1,1.34-.5c3.93-1.07,6.81,1.68,12.38.18.46-.13.93-.28,1.43-.47,3.64-1.37,5.19-5,4.85-6.25l.47-.11c2.06-.56,10.24-3.43,12.55-14.39-7.89,5-17.31,7.4-18.85,7.94C199.73,209.2,184,213.43,185.22,229.89Zm2.91-8.27c3.22-7.82,12.13-10.87,18-12.88l1.53-.53,1.11-.34a83,83,0,0,0,14.19-5.53,15.51,15.51,0,0,1-10,9.07l-.34.09-.13,0a1.81,1.81,0,0,0-1,.75,1.69,1.69,0,0,0-.23,1.31,5.78,5.78,0,0,1-3.74,4.24,13.34,13.34,0,0,1-1.27.41,12.74,12.74,0,0,1-6.46-.05,12.48,12.48,0,0,0-5.92-.13,10.07,10.07,0,0,0-1.65.62A13.6,13.6,0,0,0,188.13,221.62Z"/><path d="M222.08,194.73c10.23-2.77,23.92-8.5,18.22-23.07-2.71,6-5.31,12-21.33,16.34-1.47.4-3.26.79-5.23,1.32-7.9,2.14-18.69,6.5-23.88,22.44,1-2.44,5.3-10,23.41-14.86,1.12-.3,2.29-.6,3.52-.88C218.32,195.67,220.14,195.25,222.08,194.73ZM238.68,183c-2.29,4.31-7.86,7.6-17,10.09-2,.53-3.85,1-5.23,1.27-1.22.28-2.43.58-3.58.9A56.86,56.86,0,0,0,196.7,202c5.08-6.8,11.74-9.48,17.48-11,1-.27,2-.51,2.95-.74s1.58-.39,2.29-.58c13-3.51,17.62-8.18,20.37-13A10.49,10.49,0,0,1,238.68,183Z"/></g></g></svg>