<svg xmlns="http://www.w3.org/2000/svg" viewBox="0 0 531.32 291.64"><defs><style>.cls-1{fill:red;}</style></defs><g id="Layer_2" data-name="Layer 2"><g id="Layer_2-2" data-name="Layer 2"><path d="M65.56,112.57,129.44,0l.45.08q.41,69.27.82,138.73H113V66.12L112.3,66c-15.47,26.73-30.93,53.46-46.55,80.47L18.13,66.16V139.5H.82Q.4,70.23,0,.73L.4.63Z"/><path d="M531.32,136.43H514V118.6c-.77.67-1.16,1-1.5,1.32-16,16-35.36,23-57.79,21-23.78-2-42-13.58-54.34-33.81-14-22.9-11-53.75,6.72-73.95C419,19.59,433.8,11.1,451.86,9,474.44,6.4,494.39,12.24,511,28.23c10.24,9.86,17,21.58,19.23,35.7a71.36,71.36,0,0,1,.91,10.52c.14,15,.13,30.05.17,45.07C531.33,125.06,531.32,130.6,531.32,136.43ZM465.89,25.49c-15.39,0-25.56,2.73-34.65,9.06C409.85,49.48,405,72.39,412.55,92.37c6,15.76,23.89,32.4,49.34,31.91,15-.29,27.77-5.62,38.32-16.39,14.91-15.22,16.88-36.68,9.28-52.38C499.91,35.73,483.41,26,465.89,25.49Z"/><path d="M383,137.39H365.43c0-3.34,0-6.58,0-9.83-.07-16-.11-32-.21-48,0-5.87.13-11.77-.4-17.61-1.14-12.59-7.94-21.89-18.09-28.87-20.1-13.82-52.65-8.52-64.54,18.59a36,36,0,0,0-2.79,14.71c0,8,.13,15.93.17,23.89q.12,23,.2,46.05c0,.45,0,.9-.09,1.59H262.4c0-.7-.13-1.47-.13-2.23q-.09-12.83-.14-25.66c-.07-15.15-.29-30.3-.16-45.45.11-13.78,5.31-25.62,14.46-35.84,21.8-24.32,57.78-25.14,80-10,14.21,9.71,23.36,22.75,25.67,40.1a57.41,57.41,0,0,1,.5,7.41c.09,15.22.09,30.44.16,45.66,0,7.7.17,15.41.25,23.11C383,135.75,383,136.45,383,137.39Z"/><path class="cls-1" d="M225.87,287.53h-9.24V267.86c-1.76,2.16-3.09,4-4.63,5.63-14.91,15.85-33.22,21.59-54.13,16.15-20.47-5.33-33.62-19.09-38.75-39.65-7.41-29.68,11.83-59.58,41.77-65.73a54.29,54.29,0,0,1,64,42.06,48.28,48.28,0,0,1,1,9.52c.1,16.46.05,32.92.05,49.39Zm-9.22-50.21a44.8,44.8,0,0,0-44.86-44.83c-25.26-.17-45.58,21.61-44.91,46.21.63,23.09,20.85,44.27,46.2,43.56C196.83,281.6,216.79,261.52,216.65,237.32Z"/><path d="M252.46,29.84c-3.78-.93-7.46-2.05-11.23-2.73C221,23.46,200,35.63,193.54,54.52c-1.89,5.54-2,11.26-2,17,.07,6.33.15,12.66.19,19q.12,23,.2,46c0,.45,0,.9-.08,1.52H174.59c-.05-.54-.13-1.11-.14-1.68q-.07-11.74-.13-23.51c-.07-16-.32-32-.15-48,.16-14.15,5.67-26.24,15.43-36.4,13.46-14,30.05-20.06,49.32-18.76,4.14.28,8.23,1.33,12.32,2.11.46.09,1.16.75,1.16,1.16C252.48,18.62,252.46,24.23,252.46,29.84Z"/><path class="cls-1" d="M371.7,237.49c.78,28.68-24.47,54.41-54.6,54.13-28.72-.27-54-24.62-53.71-54.76.23-29.45,25.54-54.36,55.52-53.72C347.23,183.75,372.55,208.4,371.7,237.49Zm-54.12-45c-25.4-.24-45.27,21.73-44.88,45.64.38,23.54,20.85,44.7,45.85,44.11,24.08-.57,44.07-20.55,43.93-45A44.74,44.74,0,0,0,317.58,192.51Z"/><path class="cls-1" d="M477.22,287.64h-9.15V229.47c0-15.56-9.51-29.72-24.11-35-27.24-9.81-50.78,11.72-50.43,34.64.29,18.67.06,37.36.06,56v2.46h-9.35v-2.28q0-28.31,0-56.62c0-23,17.67-42.75,40.48-45.53,26.24-3.2,44,13.89,49.82,30a43.53,43.53,0,0,1,2.67,14.94v59.47Z"/><path d="M143.17,14.75H160.7q.36,61.89.7,123.82H143.9C143.66,97.33,143.41,56.15,143.17,14.75Z"/><path class="cls-1" d="M29.51,251.42h9a62,62,0,0,0,1,7.38c2.91,11.54,10.14,19.34,21.57,22.34,12,3.16,22.51-.18,30.71-9.68a28.79,28.79,0,0,0,4.07-32,25.7,25.7,0,0,0-9.93-10.32c-4.6-2.71-9.43-5-14.18-7.46C66.81,219.16,61.67,217,57,214.13c-7.78-4.71-10.45-11.39-8.21-19,2.15-7.37,9.48-12.55,17.73-12.58,5.36,0,10.22,1.34,14.15,5.16s3.78,4.61-1.11,6.63a12.9,12.9,0,0,0-1.26.54c-1.63.83-2.77,1.12-4.44-.64-4-4.2-12.63-2.74-15.55,2.27-1.58,2.7-1.46,5.64,1,7.63a46.82,46.82,0,0,0,8.34,5.36c6.27,3.2,12.78,6,19,9.22,6.48,3.41,12.16,7.89,16.19,14.17,8.27,12.91,7.21,30.93-2.83,43.45-9.79,12.2-22.69,17.25-38,14.56s-25.37-12.08-30.6-26.63A33.51,33.51,0,0,1,29.51,251.42Z"/><path class="cls-1" d="M241.68,159.38h9.07V287.44h-9.07Z"/><path class="cls-1" d="M369.8,157.64a9.47,9.47,0,0,1-1.37,2.27c-4.47,4.58-9,9.09-13.55,13.59-1.9,1.88-4.22,1.95-5.9.29s-1.61-4,.28-5.91c4.49-4.55,9-9,13.55-13.57a4,4,0,0,1,4.65-1C369.06,153.93,369.81,155.26,369.8,157.64Z"/></g></g></svg>
